<svg version="1.0" xmlns="http://www.w3.org/2000/svg"
 width="200.000000pt" height="200.000000pt" viewBox="0 0 200.000000 200.000000"
 preserveAspectRatio="xMidYMid meet">

<g transform="translate(0.000000,200.000000) scale(0.100000,-0.100000)"
fill="#000000" stroke="none">
<path d="M957 1984 c-3 -3 -3 -13 0 -22 4 -9 2 -13 -4 -9 -7 4 -13 -11 -18
-40 -9 -65 -22 -93 -40 -93 -9 0 -14 -3 -12 -7 3 -5 -7 -9 -21 -9 -15 -1 -44
-5 -65 -9 -36 -7 -41 -5 -82 35 -24 24 -42 47 -40 51 11 17 -32 18 -62 2 -36
-19 -43 -49 -20 -93 22 -43 21 -94 -2 -114 -11 -10 -18 -23 -14 -29 3 -5 2 -7
-4 -4 -5 4 -23 -7 -38 -23 -29 -30 -44 -32 -96 -12 -14 6 -41 12 -60 14 -30 3
-36 -1 -54 -35 l-20 -37 58 -56 c41 -39 56 -61 52 -73 -4 -9 -11 -38 -16 -66
-11 -62 -33 -81 -101 -89 -74 -9 -80 -15 -76 -71 l3 -49 75 -16 c74 -15 75
-15 88 -55 7 -22 16 -58 19 -80 5 -38 2 -43 -46 -90 -51 -50 -54 -60 -32 -106
15 -31 50 -32 123 -3 l47 18 44 -40 c66 -59 69 -65 56 -126 -6 -29 -13 -60
-16 -68 -12 -31 -11 -41 10 -55 19 -13 23 -13 41 3 18 15 19 15 8 0 -16 -21 1
-33 25 -19 10 6 14 11 10 11 -4 0 4 12 18 28 21 22 25 35 23 72 -2 41 -6 48
-48 78 -25 17 -51 30 -58 27 -7 -3 -10 0 -7 6 4 5 -13 30 -38 54 -24 25 -42
45 -39 45 3 0 -2 8 -10 18 -9 9 -27 38 -40 64 -14 26 -28 44 -32 41 -4 -4 -4
0 0 10 3 10 1 17 -6 17 -6 0 -9 4 -6 9 4 5 -1 35 -9 67 -19 75 -19 214 0 289
20 75 71 181 108 222 16 17 27 34 25 37 -1 4 12 15 30 26 18 11 30 25 27 30
-4 6 -2 9 3 8 5 -2 34 16 66 40 31 23 63 42 70 42 8 0 19 7 26 15 7 9 18 14
25 11 6 -2 36 2 65 10 70 18 190 18 259 -1 30 -8 57 -13 60 -13 18 4 159 -81
195 -117 9 -9 21 -13 27 -9 7 4 9 3 5 -4 -3 -6 2 -15 11 -21 10 -6 14 -11 9
-11 -5 0 9 -19 30 -42 22 -24 50 -67 64 -95 14 -29 28 -53 33 -53 4 0 6 -4 3
-9 -4 -5 -2 -21 4 -35 20 -54 29 -180 18 -261 -6 -44 -11 -89 -11 -100 -1 -11
-7 -26 -14 -33 -7 -7 -13 -22 -13 -33 0 -10 -4 -19 -9 -19 -5 0 -15 -14 -22
-32 -7 -18 -20 -39 -29 -48 -75 -80 -110 -122 -105 -130 3 -4 -3 -6 -13 -3
-11 2 -25 -3 -33 -14 -13 -17 -13 -17 6 -3 19 14 19 14 6 -2 -7 -10 -17 -15
-22 -13 -4 3 -17 0 -29 -7 -35 -22 -26 -132 12 -133 3 0 10 -4 15 -9 5 -5 3
-6 -4 -2 -23 13 -13 -3 11 -19 22 -15 27 -15 55 -1 16 9 33 21 36 26 8 13 -14
112 -23 106 -4 -2 -7 10 -6 27 1 22 14 44 52 83 46 49 53 52 79 44 15 -5 49
-16 75 -24 l47 -14 25 41 25 42 -32 31 c-18 18 -36 31 -41 30 -5 0 -17 13 -27
29 -15 24 -16 38 -9 65 5 19 14 54 20 77 8 31 17 44 33 48 12 2 48 9 80 15
l57 11 0 49 0 48 -44 11 c-25 6 -54 11 -64 11 -31 0 -61 32 -67 70 -3 19 -11
50 -17 67 -12 32 -11 34 53 93 35 32 59 60 54 60 -6 0 -17 16 -24 35 -12 33
-14 34 -49 29 -20 -3 -50 -12 -66 -20 -44 -21 -53 -18 -112 38 -53 50 -54 52
-50 99 3 26 9 56 15 67 18 33 9 60 -26 79 l-34 18 -48 -55 c-27 -30 -47 -58
-44 -62 2 -4 -2 -6 -9 -4 -7 2 -44 12 -83 21 -76 19 -95 34 -95 76 0 15 -4 30
-9 33 -5 3 -7 15 -4 26 8 30 -15 50 -57 50 -20 0 -39 -3 -43 -6z"/>
<path d="M586 1451 l-39 -6 -4 -129 c-3 -114 -1 -127 12 -116 13 11 14 10 9
-4 -5 -13 1 -16 41 -16 74 0 116 31 111 82 -3 33 -26 62 -38 50 -6 -6 -4 -18
4 -31 11 -18 11 -26 -2 -49 -12 -21 -24 -28 -54 -30 -45 -4 -56 7 -56 59 0 46
16 60 62 53 30 -5 38 -3 48 16 6 12 9 28 6 36 -3 9 -1 12 4 9 6 -4 10 5 10 20
0 18 -6 29 -20 32 -11 3 -17 9 -14 14 3 5 1 9 -5 9 -5 0 -15 2 -23 4 -7 1 -31
0 -52 -3z m72 -33 c33 -33 -4 -92 -55 -86 -24 3 -28 8 -31 36 -2 19 -1 40 2
48 7 17 67 19 84 2z"/>
<path d="M783 1441 c-11 -10 -13 -38 -9 -120 2 -58 5 -114 5 -123 1 -15 11
-18 71 -18 80 0 96 16 19 19 -29 1 -56 4 -60 7 -5 3 -9 27 -9 55 0 53 0 53 68
49 17 -1 32 3 32 8 0 13 -53 20 -78 11 -18 -7 -19 -3 -18 44 l1 52 58 3 c31 2
57 8 57 13 0 6 -4 7 -10 4 -5 -3 -10 -2 -10 3 0 14 -102 9 -117 -7z"/>
<path d="M1043 1453 c-76 -4 -103 -23 -33 -23 l40 0 0 -118 c0 -101 2 -119 16
-119 13 0 15 17 13 116 l-1 116 61 3 c45 2 61 7 61 17 0 11 -11 14 -42 13 -24
-1 -76 -4 -115 -5z"/>
<path d="M1317 1435 c-22 -15 -39 -36 -42 -53 -4 -15 -8 -36 -10 -46 -9 -42
16 -115 45 -136 42 -30 121 -26 127 7 2 8 -5 8 -26 0 -65 -24 -113 21 -115
108 0 55 27 127 47 120 6 -2 36 -6 66 -10 47 -5 53 -4 42 8 -17 21 -71 30 -89
15 -13 -10 -14 -10 -8 0 10 17 6 15 -37 -13z"/>
<path d="M1178 1264 c4 -75 19 -92 22 -24 4 69 0 100 -12 100 -10 0 -12 -20
-10 -76z"/>
<path d="M940 1069 c-14 -5 -33 -20 -43 -32 -10 -12 -15 -15 -11 -7 5 10 1 9
-14 -3 -11 -11 -18 -25 -16 -32 3 -7 0 -16 -7 -21 -8 -5 -10 -3 -4 6 5 8 4 11
-3 6 -29 -18 -21 -176 8 -176 6 0 10 -6 10 -14 0 -19 51 -55 69 -48 9 3 11 0
6 -8 -6 -10 -4 -12 8 -7 10 3 17 2 17 -3 0 -11 63 -14 74 -3 3 4 13 8 21 9 36
5 87 49 107 91 24 51 20 136 -8 162 -12 11 -15 12 -9 2 5 -9 4 -12 -3 -7 -6 4
-9 13 -6 20 6 17 -45 55 -65 48 -8 -2 -11 0 -8 5 13 20 -79 29 -123 12z m149
-43 c10 -9 21 -13 26 -9 4 5 5 3 2 -3 -3 -5 3 -23 14 -40 32 -48 22 -125 -25
-186 -18 -24 -94 -42 -138 -34 -78 14 -133 108 -109 186 15 49 57 100 82 100
11 0 18 4 15 8 -9 15 115 -6 133 -22z"/>
<path d="M897 657 c-50 -10 -75 -20 -95 -40 -24 -25 -27 -34 -26 -95 2 -85 23
-155 43 -143 13 8 12 19 0 78 -20 92 -13 133 26 153 44 22 269 20 309 -3 16
-9 33 -14 37 -11 4 2 5 -5 2 -16 -3 -12 0 -20 7 -20 8 0 9 -4 3 -12 -5 -7 -16
-46 -23 -87 -10 -60 -10 -75 1 -82 15 -9 29 -3 29 12 0 6 -6 7 -12 3 -7 -4 -5
1 4 12 22 25 33 134 18 179 -10 29 -20 37 -68 56 -70 26 -165 32 -255 16z"/>
<path d="M798 318 c-13 -35 0 -38 202 -38 109 0 201 4 204 9 4 5 3 16 0 25 -5
14 -32 16 -204 16 -149 0 -199 -3 -202 -12z"/>
<path d="M798 228 c-13 -35 0 -38 202 -38 109 0 201 4 204 9 4 5 3 16 0 25 -5
14 -32 16 -204 16 -149 0 -199 -3 -202 -12z"/>
<path d="M865 140 c-3 -5 -3 -10 2 -10 4 0 1 -4 -6 -9 -25 -16 24 -22 158 -19
95 2 125 6 129 17 3 8 0 11 -7 7 -7 -5 -9 -1 -5 8 5 14 -11 16 -129 16 -80 0
-138 -4 -142 -10z"/>
<path d="M933 53 c-7 -3 -13 -9 -13 -14 0 -6 4 -8 9 -5 5 3 8 -2 7 -11 -1 -14
9 -18 54 -21 62 -4 98 14 87 42 -6 14 -18 17 -69 15 -35 -1 -69 -4 -75 -6z"/>
</g>
</svg>
