<?xml version="1.0" standalone="no"?>
<!DOCTYPE svg PUBLIC "-//W3C//DTD SVG 20010904//EN"
 "http://www.w3.org/TR/2001/REC-SVG-20010904/DTD/svg10.dtd">
<svg version="1.0" xmlns="http://www.w3.org/2000/svg"
 width="500.000000pt" height="499.000000pt" viewBox="0 0 500.000000 499.000000"
 preserveAspectRatio="xMidYMid meet">

<g transform="translate(0.000000,499.000000) scale(0.100000,-0.100000)"
fill="#000000" stroke="none">
<path d="M2366 4923 c-4 -5 -40 -11 -79 -14 -174 -15 -433 -72 -607 -133 -138
-49 -409 -190 -542 -283 -352 -245 -643 -580 -811 -933 -105 -221 -126 -277
-172 -451 -129 -492 -113 -944 52 -1454 63 -197 245 -522 404 -725 230 -292
598 -572 944 -716 189 -80 440 -149 630 -176 185 -26 664 -13 795 22 19 5 85
21 145 36 257 63 533 187 770 347 168 114 386 313 517 473 143 175 299 445
387 666 98 249 179 699 168 938 -26 575 -206 1060 -555 1497 -226 284 -509
505 -857 670 -266 127 -503 189 -881 233 -106 12 -297 13 -308 3z m509 -72
c338 -53 671 -181 950 -365 169 -111 231 -162 386 -316 232 -231 379 -449 524
-775 32 -71 84 -226 100 -295 9 -41 23 -98 31 -127 63 -233 63 -748 0 -1008
-9 -36 -23 -95 -32 -133 -14 -60 -82 -257 -103 -300 -4 -9 -29 -62 -56 -117
-204 -429 -584 -830 -1000 -1055 -105 -57 -128 -68 -210 -103 -310 -132 -599
-190 -945 -190 -318 0 -536 38 -825 141 -190 68 -447 205 -594 316 -29 23 -61
46 -70 51 -63 40 -324 302 -397 398 -113 149 -223 323 -271 427 -172 371 -244
684 -244 1052 1 349 48 602 168 908 232 588 707 1076 1289 1324 209 89 443
151 661 176 101 11 547 5 638 -9z"/>
<path d="M2445 4650 c-9 -29 -4 -262 7 -283 7 -13 13 -15 26 -8 14 8 16 27 13
148 -3 127 -10 163 -32 163 -4 0 -10 -9 -14 -20z"/>
<path d="M2632 4643 c-29 -12 -52 -85 -52 -168 0 -73 3 -85 25 -109 27 -30 66
-34 90 -10 23 23 15 48 -18 52 -37 4 -51 34 -44 95 8 60 21 78 56 75 21 -2 27
2 29 21 6 39 -41 62 -86 44z"/>
<path d="M2167 4613 c-11 -19 -18 -105 -9 -116 5 -7 13 -34 17 -62 10 -70 30
-105 60 -105 13 0 31 10 39 21 14 20 16 21 31 5 16 -16 55 -16 104 0 21 7 10
178 -14 204 -34 37 -105 19 -105 -26 0 -23 3 -25 29 -19 43 9 46 -10 6 -34
-25 -14 -35 -27 -35 -45 0 -16 -7 -27 -21 -31 -28 -9 -37 1 -45 52 -5 35 -3
43 15 52 27 15 27 39 0 49 -11 4 -25 19 -32 32 -13 25 -32 36 -40 23z m203
-187 c0 -18 -16 -29 -30 -21 -13 8 -1 35 16 35 8 0 14 -6 14 -14z"/>
<path d="M2925 4606 c-3 -9 -8 -24 -11 -33 -4 -10 -14 -69 -24 -131 -12 -82
-14 -115 -5 -122 16 -13 31 1 39 35 18 78 37 203 34 229 -3 32 -25 47 -33 22z"/>
<path d="M3004 4588 c-4 -6 -16 -50 -26 -97 -11 -47 -23 -104 -28 -126 -9 -41
6 -75 28 -61 17 10 72 225 72 281 0 18 -35 20 -46 3z"/>
<path d="M2774 4560 c-51 -21 -68 -176 -24 -215 25 -23 69 -15 93 17 25 34 36
154 15 180 -16 21 -56 30 -84 18z m42 -73 c7 -20 -10 -90 -24 -95 -19 -6 -26
26 -13 69 12 39 27 50 37 26z"/>
<path d="M2037 4529 c-9 -5 -21 -8 -26 -5 -5 3 -14 -1 -21 -8 -17 -22 30 -210
55 -214 29 -6 33 15 17 84 -13 51 -13 67 -4 76 17 17 25 3 42 -77 13 -64 26
-80 50 -65 10 6 9 23 -5 86 -28 128 -52 155 -108 123z"/>
<path d="M1683 4487 c-60 -22 -60 -25 -8 -162 27 -69 52 -128 56 -131 14 -9
88 28 103 51 21 32 20 42 -10 125 -26 68 -73 131 -97 129 -7 0 -26 -6 -44 -12z
m60 -71 c20 -20 50 -104 43 -122 -12 -30 -38 -8 -62 51 -24 57 -25 85 -5 85 5
0 16 -6 24 -14z"/>
<path d="M1860 4482 c-48 -39 -11 -187 53 -213 37 -16 80 4 85 40 5 35 -12 46
-41 26 -19 -12 -27 -13 -33 -4 -8 13 21 39 43 39 28 0 11 63 -30 108 -25 27
-47 28 -77 4z m60 -67 c0 -8 -7 -15 -15 -15 -8 0 -15 7 -15 15 0 8 7 15 15 15
8 0 15 -7 15 -15z"/>
<path d="M3076 4470 c-37 -45 -57 -130 -40 -175 4 -8 20 -23 36 -31 27 -14 32
-14 54 1 33 21 30 33 -11 51 -48 20 -46 38 4 29 48 -8 61 9 61 79 0 35 -5 48
-22 60 -33 23 -53 20 -82 -14z m54 -56 c0 -8 -7 -14 -15 -14 -15 0 -21 21 -9
33 10 9 24 -2 24 -19z"/>
<path d="M3237 4439 c-24 -14 -47 -62 -47 -97 0 -16 -7 -35 -15 -42 -8 -7 -15
-19 -15 -27 0 -8 -9 -26 -20 -40 -26 -34 -25 -47 6 -72 38 -30 87 -28 113 5
25 32 27 61 4 86 -9 10 -14 19 -12 21 2 1 18 9 34 17 20 10 31 25 33 42 2 14
12 34 23 44 10 9 19 23 19 31 0 24 -94 49 -123 32z m47 -58 c3 -4 -1 -17 -9
-27 -16 -23 -40 -7 -29 19 7 18 29 23 38 8z m-66 -169 c2 -7 -3 -12 -12 -12
-9 0 -16 7 -16 16 0 17 22 14 28 -4z"/>
<path d="M3400 4367 c-36 -18 -81 -87 -87 -135 -5 -34 -2 -44 20 -66 39 -39
87 -31 87 14 0 5 -12 15 -27 22 -36 17 -45 44 -12 34 60 -19 65 -18 83 9 50
76 7 158 -64 122z m25 -77 c-5 -8 -11 -8 -17 -2 -6 6 -7 16 -3 22 5 8 11 8 17
2 6 -6 7 -16 3 -22z"/>
<path d="M1400 4340 c0 -11 27 -67 61 -125 33 -58 59 -111 57 -116 -2 -6 -24
4 -48 23 -37 28 -46 41 -52 78 -4 24 -11 47 -15 51 -14 14 -35 -7 -42 -42 l-7
-33 -29 47 c-29 46 -58 60 -68 34 -3 -8 28 -65 69 -128 58 -91 78 -114 96
-114 23 0 23 2 10 50 -5 19 -5 19 22 2 27 -18 66 -15 66 4 0 5 11 14 25 19 32
12 31 23 -5 89 -33 59 -37 81 -17 81 7 0 30 -29 50 -65 36 -63 62 -80 73 -51
6 16 -14 58 -63 134 -37 55 -62 65 -94 36 -16 -14 -19 -13 -35 15 -21 35 -54
42 -54 11z"/>
<path d="M3627 4309 c-9 -5 -24 -24 -33 -40 -8 -17 -32 -47 -54 -69 -21 -21
-41 -52 -45 -69 -9 -43 16 -81 53 -81 16 0 32 -8 40 -20 18 -29 42 -25 42 6 0
17 14 42 40 70 22 24 40 48 40 53 0 17 -19 22 -41 11 -26 -14 -30 -10 -31 29
-1 43 16 60 44 42 17 -11 22 -11 29 1 31 48 -31 98 -84 67z m-47 -174 c0 -25
-14 -34 -24 -16 -8 12 3 41 15 41 5 0 9 -11 9 -25z"/>
<path d="M3794 4093 c-37 -43 -78 -90 -91 -104 -15 -16 -21 -32 -17 -42 9 -24
24 -21 59 13 28 27 33 29 44 16 11 -13 9 -21 -9 -46 -25 -35 -20 -63 11 -58
13 2 30 22 47 53 15 28 31 52 35 54 5 2 24 17 43 33 47 41 47 87 2 129 -18 16
-38 29 -44 29 -6 0 -42 -35 -80 -77z m93 -19 c3 -9 -3 -25 -16 -37 -19 -19
-23 -20 -36 -6 -13 13 -13 17 1 37 18 26 42 29 51 6z"/>
<path d="M1230 4130 c0 -10 13 -34 29 -52 27 -31 51 -70 51 -82 0 -3 -8 -6
-19 -6 -11 0 -32 20 -52 50 -39 56 -56 67 -77 46 -13 -12 -7 -23 43 -85 51
-63 81 -91 99 -91 2 0 23 17 46 39 l41 38 -62 82 c-62 81 -99 104 -99 61z"/>
<path d="M2318 4138 c-30 -11 -33 -21 -22 -102 6 -38 11 -47 31 -52 33 -9 83
14 94 43 15 41 10 63 -20 94 -32 31 -41 33 -83 17z m54 -45 c21 -19 23 -44 6
-61 -22 -22 -36 -13 -41 26 -6 55 3 65 35 35z"/>
<path d="M2703 4103 c-20 -27 -21 -27 -40 -10 -12 11 -32 16 -54 14 -34 -2
-34 -3 -37 -55 -2 -41 0 -52 12 -52 9 0 16 12 18 32 4 46 26 47 30 1 4 -51 29
-51 41 0 12 49 27 47 27 -3 0 -49 13 -56 99 -55 l65 0 8 34 c12 44 -12 73 -56
69 -39 -4 -45 -25 -9 -31 27 -4 27 -4 -4 -6 -23 -1 -34 -7 -38 -22 -6 -19 -9
-20 -23 -6 -14 14 -13 18 1 41 13 19 14 31 7 51 -12 32 -21 32 -47 -2z"/>
<path d="M2460 4090 c-11 -11 -20 -29 -20 -40 0 -23 33 -60 54 -60 29 0 46 13
46 35 0 13 5 27 11 30 15 10 -29 55 -53 55 -10 0 -27 -9 -38 -20z"/>
<path d="M2905 4078 c-7 -20 -24 -102 -25 -115 0 -22 26 -14 38 11 6 13 14 44
17 70 6 39 5 46 -9 46 -9 0 -19 -6 -21 -12z"/>
<path d="M2028 4048 c-5 -36 38 -118 62 -118 11 0 23 6 26 14 3 8 19 14 39 13
43 -1 65 18 65 57 0 39 -15 56 -50 56 -35 0 -60 -29 -60 -70 0 -28 -2 -31 -15
-20 -8 7 -15 24 -15 39 0 47 -46 72 -52 29z m150 -32 c2 -10 -1 -23 -6 -28
-12 -12 -36 27 -27 43 10 15 29 5 33 -15z"/>
<path d="M3016 4033 c-7 -16 -18 -45 -24 -66 -9 -34 -8 -39 11 -51 35 -22 87
-30 87 -13 0 7 -11 19 -25 25 -14 6 -25 19 -25 27 0 13 4 14 21 4 16 -8 24 -8
33 1 8 9 6 16 -11 27 -32 22 -29 36 6 28 40 -9 48 11 12 30 -44 22 -68 19 -85
-12z"/>
<path d="M1920 4027 c0 -8 -13 -26 -30 -40 -43 -39 -40 -81 7 -106 29 -15 89
17 86 46 -6 55 -63 145 -63 100z m20 -98 c0 -20 -24 -26 -35 -9 -4 6 -4 17 -1
25 7 20 36 7 36 -16z"/>
<path d="M1084 4022 c-7 -4 -13 -16 -15 -27 -2 -10 -14 -22 -25 -25 -22 -5
-74 -60 -74 -78 0 -6 31 -43 68 -83 50 -53 73 -71 85 -66 29 11 19 41 -33 92
-54 53 -60 65 -32 65 11 0 38 -22 61 -50 43 -51 67 -62 77 -35 4 10 -11 34
-40 65 -25 27 -46 54 -46 59 0 25 21 16 65 -29 51 -52 72 -61 81 -35 8 19 -76
119 -116 140 -33 17 -40 18 -56 7z"/>
<path d="M3891 3955 c-50 -45 -74 -95 -62 -127 12 -32 46 -60 68 -56 26 5 28
41 3 63 -11 10 -20 22 -20 27 0 15 23 8 47 -14 30 -28 49 -18 82 44 24 44 24
47 8 72 -26 39 -76 36 -126 -9z m77 -37 c-6 -18 -28 -21 -28 -4 0 9 7 16 16
16 9 0 14 -5 12 -12z"/>
<path d="M3147 3963 c-4 -3 -7 -14 -7 -24 0 -10 -9 -24 -19 -31 -22 -15 -13
-44 10 -36 8 3 22 -1 31 -9 19 -17 42 -8 34 13 -3 8 3 23 14 34 27 27 25 40
-4 40 -14 0 -28 5 -31 10 -7 12 -19 13 -28 3z"/>
<path d="M1767 3922 c-19 -21 -22 -57 -7 -67 15 -9 12 -25 -5 -25 -8 0 -19 9
-25 20 -6 11 -8 20 -4 20 4 0 -1 9 -11 20 -10 11 -27 20 -38 20 -16 0 -18 -5
-12 -27 3 -15 10 -30 14 -33 4 -3 17 -20 30 -37 26 -38 45 -42 63 -13 7 11 22
20 34 20 21 0 64 38 64 57 0 6 -9 22 -21 37 -24 30 -59 34 -82 8z m63 -57 c-7
-8 -16 -12 -21 -9 -13 8 -1 24 18 24 13 0 13 -3 3 -15z"/>
<path d="M3226 3898 c-9 -12 -16 -33 -16 -45 0 -30 42 -57 75 -49 18 5 25 2
25 -8 0 -20 50 -66 72 -66 10 0 18 7 18 15 0 9 7 18 15 21 24 9 29 43 9 65
-21 23 -71 25 -96 2 -12 -11 -18 -12 -18 -3 0 8 -9 11 -26 7 -29 -5 -44 17
-25 36 9 9 17 8 32 -2 29 -17 43 -1 23 27 -20 30 -68 29 -88 0z m149 -118 c3
-5 1 -10 -4 -10 -6 0 -11 5 -11 10 0 6 2 10 4 10 3 0 8 -4 11 -10z"/>
<path d="M4026 3859 c-24 -19 -27 -28 -25 -67 4 -50 -12 -67 -31 -33 -14 27
-36 27 -51 0 -9 -18 -7 -26 8 -48 28 -37 70 -39 107 -5 24 23 27 32 22 65 -7
42 7 52 29 22 11 -15 15 -15 29 -4 23 19 20 57 -6 75 -30 21 -50 20 -82 -5z"/>
<path d="M1604 3826 c-27 -23 -28 -24 -11 -57 16 -33 15 -34 -3 -37 -11 -2
-20 -10 -20 -18 0 -20 -27 -29 -45 -14 -17 14 -3 40 21 40 16 0 19 26 4 35 -5
3 -19 1 -30 -5 -65 -35 -35 -133 35 -116 13 3 32 20 42 36 9 17 26 30 36 30
22 0 77 39 77 55 0 13 -58 75 -71 75 -4 0 -20 -11 -35 -24z"/>
<path d="M904 3832 c-6 -4 -15 -15 -20 -25 -10 -17 -12 -17 -37 4 -29 22 -57
20 -57 -5 0 -8 21 -31 47 -52 25 -22 75 -63 109 -91 67 -57 79 -62 88 -38 6
17 -2 45 -13 45 -15 0 -91 72 -91 86 0 24 22 16 83 -32 55 -44 60 -46 75 -30
16 16 14 19 -23 52 -58 50 -122 94 -137 94 -7 0 -18 -4 -24 -8z"/>
<path d="M3468 3805 c-31 -33 -63 -93 -54 -102 11 -11 38 10 68 53 44 63 33
100 -14 49z"/>
<path d="M3535 3782 c-6 -4 -28 -29 -49 -55 -29 -36 -36 -51 -28 -59 9 -9 23
1 57 37 50 55 64 109 20 77z"/>
<path d="M4112 3734 c-96 -48 -124 -113 -70 -164 26 -24 29 -24 53 -6 19 14
19 15 2 33 -18 21 -23 53 -8 53 5 0 16 -11 25 -25 22 -33 38 -32 80 9 44 41
47 76 10 105 -33 26 -30 26 -92 -5z m61 -49 c1 -5 -6 -11 -15 -13 -11 -2 -18
3 -18 13 0 17 30 18 33 0z"/>
<path d="M1405 3710 c-3 -5 -2 -10 3 -10 6 0 22 -20 36 -44 25 -42 48 -61 60
-49 13 13 4 31 -34 71 -42 43 -54 49 -65 32z"/>
<path d="M3542 3706 c-44 -21 -42 -101 4 -112 18 -5 32 0 50 17 28 26 31 60 7
81 -27 23 -36 25 -61 14z"/>
<path d="M786 3688 c-46 -65 31 -137 104 -98 27 15 36 -7 14 -32 -18 -19 -18
-20 1 -34 26 -19 32 -18 60 11 31 30 32 57 1 89 -26 29 -73 35 -106 14 -26
-16 -37 -3 -17 20 21 23 22 38 1 46 -28 11 -42 7 -58 -16z"/>
<path d="M1357 3684 c-3 -4 -3 -19 0 -35 3 -18 1 -29 -6 -29 -15 0 -14 -63 1
-78 20 -20 72 -14 96 11 12 13 22 28 22 34 0 9 -94 103 -103 103 -2 0 -6 -3
-10 -6z m53 -89 c9 -11 10 -19 2 -27 -14 -14 -32 -1 -32 23 0 23 13 25 30 4z"/>
<path d="M4235 3626 c-19 -14 -19 -15 -2 -33 16 -19 23 -43 12 -43 -3 0 -19
10 -36 22 l-30 22 -36 -19 c-19 -11 -42 -30 -51 -43 -14 -21 -13 -25 12 -50
14 -16 26 -33 26 -39 0 -25 30 -19 86 18 106 71 125 109 79 154 -28 29 -34 30
-60 11z m-45 -111 c0 -8 -6 -15 -14 -15 -17 0 -28 14 -19 24 12 12 33 6 33 -9z"/>
<path d="M3610 3594 c-22 -26 -28 -40 -21 -47 8 -8 20 -4 41 12 43 31 58 22
25 -17 -23 -27 -24 -33 -10 -38 17 -7 50 18 67 49 8 15 4 25 -18 48 -15 16
-33 29 -40 29 -6 0 -26 -16 -44 -36z"/>
<path d="M2413 3593 c9 -2 23 -2 30 0 6 3 -1 5 -18 5 -16 0 -22 -2 -12 -5z"/>
<path d="M2600 3593 c14 -3 43 -19 65 -36 32 -25 36 -27 23 -8 -20 28 -63 51
-92 50 -18 -2 -17 -2 4 -6z"/>
<path d="M2507 3563 c22 -16 30 -16 36 1 4 9 -3 13 -24 12 -26 -1 -27 -2 -12
-13z"/>
<path d="M696 3548 c-24 -34 -20 -52 20 -92 41 -41 39 -44 -16 -16 -58 30
-103 26 -133 -10 -30 -35 -43 -69 -30 -79 4 -5 61 -36 125 -69 l118 -62 25 40
c32 51 32 72 -5 114 l-31 35 53 -6 c57 -6 78 7 92 53 7 24 -33 69 -41 47 -9
-24 -41 -58 -49 -51 -4 5 -2 19 4 33 18 39 15 53 -18 70 -44 23 -96 20 -114
-7z m82 -40 c-6 -18 -28 -21 -28 -4 0 9 7 16 16 16 9 0 14 -5 12 -12z m-74
-131 c47 -27 65 -52 49 -68 -19 -19 -153 57 -139 79 11 18 47 14 90 -11z"/>
<path d="M1282 3544 c-31 -22 -26 -70 9 -97 31 -22 57 -14 79 27 12 24 11 28
-18 56 -37 35 -40 35 -70 14z m58 -54 c0 -5 -5 -10 -11 -10 -5 0 -7 5 -4 10 3
6 8 10 11 10 2 0 4 -4 4 -10z"/>
<path d="M3713 3520 c-48 -20 -31 -116 19 -108 32 5 33 26 3 38 -23 9 -25 13
-15 25 20 24 40 18 40 -11 0 -19 5 -25 18 -22 25 5 27 43 3 67 -23 23 -34 24
-68 11z"/>
<path d="M4257 3454 c-88 -45 -109 -66 -88 -87 8 -8 26 -3 71 18 53 25 62 27
84 15 22 -11 29 -10 51 4 28 19 32 31 11 43 -8 4 -15 17 -17 27 -2 11 -8 21
-14 22 -5 2 -50 -17 -98 -42z"/>
<path d="M1145 3433 c-14 -21 -25 -41 -25 -44 0 -11 99 -79 114 -79 20 0 56
53 56 82 -1 42 -44 78 -94 78 -18 0 -33 -11 -51 -37z m89 -19 c17 -17 20 -32
8 -51 -5 -9 -16 -7 -40 9 -35 22 -38 28 -20 46 16 16 33 15 52 -4z"/>
<path d="M2341 3454 c0 -11 3 -14 6 -6 3 7 2 16 -1 19 -3 4 -6 -2 -5 -13z"/>
<path d="M3771 3406 c-28 -29 -25 -52 10 -79 l27 -19 31 23 c52 38 36 99 -27
99 -10 0 -29 -11 -41 -24z"/>
<path d="M2380 3347 c4 -41 5 -41 8 -8 2 18 0 37 -5 42 -5 5 -6 -11 -3 -34z"/>
<path d="M2640 3360 c0 -19 3 -21 12 -12 9 9 9 15 0 24 -9 9 -12 7 -12 -12z"/>
<path d="M4300 3347 c-47 -23 -68 -40 -74 -59 -13 -36 14 -78 51 -78 24 0 25
2 19 38 -5 34 -3 40 23 55 39 23 56 21 74 -5 12 -19 19 -21 34 -12 28 17 29
59 1 78 -32 23 -54 20 -128 -17z"/>
<path d="M2478 3339 c-13 -7 -18 -23 -18 -55 0 -25 -5 -54 -10 -64 -7 -14 -6
-21 4 -27 10 -6 15 -50 19 -178 8 -196 12 -225 37 -225 34 0 41 26 51 212 6
100 15 188 21 195 6 7 6 18 0 30 -5 10 -10 32 -10 50 -1 65 -43 92 -94 62z"/>
<path d="M1056 3288 c-23 -32 -20 -54 10 -77 38 -30 84 -9 84 39 0 54 -65 80
-94 38z"/>
<path d="M3902 3294 c-41 -28 -22 -94 28 -94 37 0 60 23 60 60 0 46 -46 64
-88 34z"/>
<path d="M4392 3243 c-66 -26 -117 -53 -123 -64 -16 -31 16 -35 75 -10 28 11
62 21 75 21 40 0 17 -24 -50 -52 -63 -26 -85 -52 -59 -68 16 -10 147 44 178
73 22 20 23 31 8 67 -5 11 3 19 24 27 20 8 30 18 30 32 0 31 -29 26 -158 -26z"/>
<path d="M2155 3259 c-103 -42 -306 -65 -597 -68 -104 -1 -109 -9 -50 -73 34
-36 45 -42 93 -46 43 -3 57 -9 65 -25 15 -34 57 -58 102 -59 36 0 44 -5 62
-35 35 -60 122 -78 205 -43 29 12 32 11 66 -23 49 -49 97 -61 212 -52 53 4
103 12 111 18 13 10 18 42 23 160 7 159 5 166 -42 167 -14 0 -28 15 -45 48
l-25 47 -65 2 c-47 2 -79 -3 -115 -18z"/>
<path d="M2692 3268 c-5 -7 -17 -30 -25 -50 -12 -29 -22 -38 -40 -38 -44 0
-49 -18 -42 -157 9 -181 4 -169 78 -182 131 -23 230 -3 280 55 l25 29 36 -18
c74 -35 152 -17 200 46 20 26 34 34 61 35 50 2 87 22 103 55 11 23 19 27 54
27 46 0 98 28 122 65 30 46 23 55 -51 56 -298 4 -524 29 -621 68 -60 24 -163
29 -180 9z"/>
<path d="M2605 3240 c-3 -5 -1 -10 4 -10 6 0 11 5 11 10 0 6 -2 10 -4 10 -3 0
-8 -4 -11 -10z"/>
<path d="M539 3201 c-10 -14 -20 -18 -40 -14 -46 9 -45 -16 2 -58 28 -24 38
-38 28 -39 -41 -1 -63 -66 -35 -103 17 -22 106 -57 146 -57 52 0 98 71 70 105
-20 24 -40 18 -51 -15 -16 -44 -39 -39 -36 7 2 31 -2 40 -20 48 -13 5 -23 15
-23 22 0 9 9 9 39 -2 74 -26 118 -23 133 10 19 42 -32 77 -61 41 -18 -22 -103
6 -99 31 2 8 -7 22 -19 30 -20 13 -23 13 -34 -6z m26 -179 c0 -18 -20 -15 -23
4 -3 10 1 15 10 12 7 -3 13 -10 13 -16z"/>
<path d="M4468 3021 c-82 -22 -116 -43 -124 -75 -12 -49 23 -94 61 -80 12 5
15 14 11 35 -7 35 11 55 65 69 57 16 82 10 89 -20 5 -20 12 -25 35 -25 27 0
30 4 33 36 6 69 -57 91 -170 60z"/>
<path d="M457 2902 c-21 -23 -22 -75 -3 -92 24 -19 115 -39 152 -33 59 10 96
82 59 113 -19 16 -45 6 -45 -18 0 -19 -18 -42 -32 -42 -5 0 -6 15 -3 34 6 28
3 36 -13 45 -33 18 -97 13 -115 -7z m73 -47 c0 -8 -7 -15 -15 -15 -8 0 -15 7
-15 15 0 8 7 15 15 15 8 0 15 -7 15 -15z"/>
<path d="M4440 2863 c-60 -11 -93 -89 -54 -128 30 -29 49 -15 46 34 -4 52 15
53 32 1 10 -32 14 -35 46 -32 44 5 87 30 94 55 6 26 -9 63 -29 71 -18 7 -95 6
-135 -1z m98 -56 c2 -10 -3 -17 -11 -17 -16 0 -30 24 -19 34 10 10 27 1 30
-17z"/>
<path d="M1676 2818 c-29 -166 -41 -210 -73 -270 -40 -76 -121 -170 -193 -223
-28 -20 -50 -43 -50 -50 0 -7 20 -45 44 -84 80 -129 95 -235 47 -328 -41 -82
-100 -94 -155 -33 -41 46 -41 48 -21 97 32 76 53 260 35 304 -7 16 -14 29 -16
29 -2 0 -26 -9 -54 -20 -93 -36 -215 -55 -342 -52 -103 3 -118 1 -118 -13 0
-9 16 -23 36 -31 172 -72 321 -250 364 -434 39 -167 2 -415 -90 -595 -11 -21
-20 -45 -20 -52 0 -19 24 -16 42 5 37 42 152 218 187 284 20 40 61 115 90 167
29 51 56 100 61 110 25 45 87 201 120 301 45 137 88 333 110 500 15 121 24
410 12 410 -7 0 -13 -10 -16 -22z"/>
<path d="M3343 2658 c5 -262 50 -519 127 -743 17 -49 35 -103 41 -120 12 -40
128 -273 179 -358 22 -38 40 -74 40 -80 0 -17 191 -298 206 -304 29 -11 34 8
13 49 -130 255 -148 534 -47 747 52 110 197 242 331 302 52 24 24 34 -94 34
-127 1 -278 25 -348 56 -32 14 -48 16 -55 9 -19 -20 -9 -231 14 -297 26 -76
26 -86 -11 -128 -42 -47 -83 -48 -125 -2 -41 45 -51 65 -59 125 -9 68 13 139
77 245 26 44 48 83 48 87 0 4 -17 19 -37 32 -63 42 -169 157 -201 216 -39 74
-69 168 -78 242 -4 33 -11 60 -16 60 -5 0 -7 -72 -5 -172z"/>
<path d="M350 2780 c-21 -13 -7 -45 23 -48 23 -3 27 0 27 21 0 26 -28 41 -50
27z"/>
<path d="M1033 2733 c-21 -27 -54 -69 -73 -95 -19 -27 -45 -51 -57 -54 -20 -5
-33 -30 -33 -66 0 -23 38 -44 53 -29 6 6 37 11 68 11 53 0 57 -2 69 -30 15
-37 81 -97 115 -106 64 -16 131 21 164 91 26 55 26 66 1 117 -11 23 -20 47
-20 52 0 6 23 40 50 75 28 35 50 67 50 72 0 5 -78 9 -174 9 l-174 0 -39 -47z"/>
<path d="M2149 2771 c-51 -10 -110 -43 -133 -75 -33 -44 -28 -142 9 -196 27
-40 135 -110 166 -110 8 0 32 14 53 30 22 17 45 30 51 30 20 0 65 25 65 36 0
6 -34 19 -75 29 -97 23 -140 50 -140 90 0 25 5 31 26 33 16 2 42 -7 64 -22 48
-33 142 -37 168 -8 35 38 7 114 -55 152 -35 21 -123 26 -199 11z"/>
<path d="M2705 2770 c-48 -15 -87 -62 -92 -112 -7 -57 9 -70 85 -71 50 -1 66
3 99 26 63 44 104 32 89 -26 -13 -52 -190 -105 -381 -114 -79 -3 -170 -24
-185 -42 -3 -4 -24 -21 -48 -40 -60 -47 -93 -108 -99 -184 -5 -59 -4 -65 29
-107 18 -25 45 -51 60 -59 24 -14 30 -13 89 18 85 45 87 47 57 70 -32 25 -57
77 -50 103 11 44 61 66 177 78 159 16 263 46 359 100 68 39 86 55 114 100 63
105 30 197 -86 246 -43 18 -178 26 -217 14z"/>
<path d="M3620 2768 c0 -6 20 -38 45 -69 49 -63 53 -80 29 -128 -20 -40 -14
-103 14 -140 28 -39 81 -71 116 -71 48 0 106 39 136 90 25 43 28 45 78 48 28
2 60 -2 71 -7 15 -8 24 -7 40 7 27 23 18 68 -18 87 -14 7 -57 54 -96 104 l-70
91 -172 0 c-127 0 -173 -3 -173 -12z"/>
<path d="M427 2756 c-10 -25 19 -37 118 -48 73 -8 101 -16 115 -30 24 -26 64
-20 68 9 5 36 -44 59 -159 72 -127 14 -136 14 -142 -3z"/>
<path d="M4497 2711 c-62 -4 -91 -10 -97 -21 -18 -28 -3 -35 76 -35 64 0 79
-3 79 -15 0 -12 -16 -16 -72 -18 -74 -3 -101 -17 -89 -48 5 -13 18 -14 88 -9
46 4 95 11 110 17 29 11 44 40 32 59 -4 7 -7 26 -8 43 -1 35 1 35 -119 27z"/>
<path d="M416 2661 c-14 -15 -15 -24 -7 -39 7 -13 7 -22 -1 -30 -24 -24 0 -40
69 -46 37 -3 84 -8 103 -11 45 -7 69 7 54 32 -8 13 -26 19 -60 21 -70 3 -94
10 -94 27 0 23 19 28 65 15 50 -14 95 -7 95 15 0 25 -36 35 -123 35 -70 0 -87
-3 -101 -19z"/>
<path d="M4565 2550 c-11 -5 -38 -9 -61 -9 -61 -1 -103 -19 -110 -46 -7 -28 1
-45 22 -45 20 0 18 -9 -8 -29 -32 -26 -16 -38 61 -46 60 -6 70 -10 80 -32 9
-20 17 -24 44 -21 31 3 32 4 32 53 l0 50 -80 3 c-103 3 -111 6 -85 32 25 25
95 28 104 5 7 -21 66 -20 66 0 0 9 11 20 25 25 35 13 33 46 -2 53 -16 3 -37 8
-48 11 -11 3 -29 1 -40 -4z"/>
<path d="M440 2502 c-25 -12 -36 -25 -38 -44 -5 -39 14 -68 44 -68 22 0 25 4
22 32 -2 18 2 33 10 35 6 3 12 -2 12 -10 0 -27 40 -67 68 -67 24 0 21 -3 -17
-21 -34 -15 -51 -17 -71 -10 -33 11 -79 4 -102 -17 -13 -11 -18 -30 -18 -68 0
-50 2 -54 26 -60 15 -4 55 -2 89 5 34 6 88 11 119 11 42 0 58 4 63 16 9 24
-13 38 -57 36 -28 -2 -40 1 -40 11 0 22 22 37 57 37 28 0 33 4 33 23 0 13 -5
28 -11 34 -8 8 -7 17 3 32 9 16 10 25 2 39 -8 12 -8 22 0 35 17 27 -8 37 -89
37 -47 0 -82 -6 -105 -18z m135 -52 c0 -22 -29 -18 -33 3 -3 14 1 18 15 15 10
-2 18 -10 18 -18z m-100 -153 c24 -18 11 -37 -25 -37 -36 0 -49 19 -25 37 11
7 22 13 25 13 3 0 14 -6 25 -13z"/>
<path d="M943 2384 c-3 -8 -1 -20 6 -27 14 -14 47 15 37 32 -10 16 -36 13 -43
-5z"/>
<path d="M4053 2384 c-6 -16 15 -37 29 -28 4 3 8 14 8 25 0 23 -28 26 -37 3z"/>
<path d="M2750 2308 c-117 -32 -109 -28 -92 -57 34 -61 -13 -121 -129 -165
-184 -68 -265 -124 -295 -201 -23 -61 -9 -109 47 -160 39 -35 42 -36 62 -20
12 8 42 25 67 36 45 20 45 20 23 37 -12 9 -27 30 -32 45 -10 24 -7 32 22 63
25 27 54 42 134 69 129 42 214 87 258 137 33 36 35 41 35 114 0 113 -13 126
-100 102z"/>
<path d="M4401 2291 c-16 -16 -21 -32 -19 -59 3 -32 7 -37 30 -40 24 -3 27 1
30 29 4 45 28 51 28 7 0 -48 13 -61 58 -61 58 0 94 26 90 65 -5 47 -43 70
-126 76 -62 4 -72 2 -91 -17z m149 -55 c0 -8 -4 -17 -9 -21 -12 -7 -24 12 -16
25 9 15 25 12 25 -4z"/>
<path d="M2505 2273 c-29 -8 -35 -21 -35 -90 0 -59 1 -63 23 -63 12 0 33 7 45
16 19 13 22 24 22 80 0 68 -2 70 -55 57z"/>
<path d="M487 2106 c-15 -22 -21 -25 -38 -16 -27 15 -42 4 -29 -20 8 -15 6
-21 -10 -30 -26 -14 -26 -40 1 -47 14 -4 18 -11 13 -22 -17 -42 -10 -51 28
-36 13 5 21 0 29 -19 14 -31 33 -29 37 3 3 19 8 21 38 15 36 -7 47 9 23 33 -8
8 -5 14 10 22 24 14 28 39 6 47 -9 4 -15 19 -15 35 0 31 -9 36 -27 18 -14 -14
-32 -4 -42 23 -7 19 -8 19 -24 -6z"/>
<path d="M4494 2092 c-6 -20 -12 -23 -35 -18 -26 5 -29 3 -29 -20 0 -14 -10
-34 -22 -44 l-22 -17 23 -12 c18 -10 21 -18 16 -43 -6 -27 -5 -30 11 -26 46
13 49 13 52 -9 4 -29 32 -30 39 -2 5 18 11 20 39 14 26 -4 34 -2 34 9 0 8 -4
18 -10 21 -18 11 -11 23 20 34 39 13 38 24 -2 39 -25 9 -30 14 -20 24 23 23
14 40 -18 33 -24 -5 -34 -2 -50 17 l-20 23 -6 -23z"/>
<path d="M2645 1945 c-33 -12 -69 -25 -80 -29 -84 -31 -85 -32 -85 -91 0 -60
5 -63 50 -40 27 14 30 20 30 65 0 59 13 64 53 22 54 -56 29 -91 -106 -142
-108 -42 -161 -76 -186 -121 -28 -50 -27 -110 2 -144 l22 -27 43 28 c37 24 42
32 42 65 0 46 15 57 130 94 116 38 150 57 193 104 33 37 37 47 37 97 0 58 -9
84 -43 122 -24 26 -24 26 -102 -3z"/>
<path d="M2618 1602 c-26 -9 -50 -20 -54 -24 -4 -5 -17 -8 -28 -8 -30 -1 -60
-26 -52 -45 5 -13 10 -14 28 -4 13 6 31 21 40 33 15 18 19 19 28 6 5 -8 10
-18 10 -21 0 -13 -54 -59 -69 -59 -32 0 -120 -51 -145 -85 -37 -48 -35 -101 4
-139 38 -37 60 -29 60 21 0 21 6 46 13 55 7 9 52 28 100 41 69 20 91 31 114
57 37 43 41 56 42 112 2 83 -8 89 -91 60z"/>
<path d="M2615 1342 c-42 -23 -50 -31 -47 -52 2 -21 -9 -33 -80 -80 -46 -30
-85 -58 -86 -63 -2 -4 -7 -5 -12 -2 -4 3 -13 -2 -20 -10 -17 -20 -12 -19 56
11 33 14 68 29 79 34 166 70 182 83 187 145 4 50 -10 53 -77 17z"/>
<path d="M2485 1291 c-10 -17 11 -21 31 -6 18 14 18 14 -3 15 -12 0 -24 -4
-28 -9z"/>
<path d="M2605 1160 c-3 -5 0 -10 8 -10 8 0 20 -6 26 -14 6 -8 21 -16 31 -19
20 -5 20 -4 -1 24 -20 29 -52 38 -64 19z"/>
<path d="M2506 1111 c-15 -17 -15 -19 0 -31 13 -12 17 -11 25 1 11 18 12 49 1
49 -5 0 -16 -8 -26 -19z"/>
<path d="M2215 680 c-40 -41 -40 -55 0 -62 17 -3 20 -12 23 -71 3 -72 17 -92
47 -67 13 11 15 34 13 124 -3 102 -5 111 -23 114 -13 2 -35 -12 -60 -38z"/>
<path d="M2376 699 c-21 -16 -26 -29 -26 -63 0 -51 25 -79 70 -79 19 0 30 -5
30 -14 0 -22 -26 -26 -53 -9 -22 15 -25 15 -37 1 -19 -23 23 -65 65 -65 40 0
70 31 86 91 15 56 6 93 -31 130 -34 34 -67 37 -104 8z m69 -64 c0 -23 -4 -30
-20 -30 -21 0 -31 25 -21 51 11 28 41 12 41 -21z"/>
<path d="M2556 699 c-21 -16 -26 -29 -26 -63 0 -51 25 -79 70 -78 20 0 30 -4
30 -14 0 -22 -27 -28 -45 -10 -19 18 -45 11 -45 -14 0 -43 65 -64 108 -34 86
60 54 234 -44 234 -12 0 -33 -9 -48 -21z m69 -64 c0 -33 -28 -47 -39 -19 -10
25 3 56 22 52 11 -2 17 -13 17 -33z"/>
<path d="M2761 707 c-33 -16 -55 -85 -47 -142 18 -115 148 -130 163 -18 5 36
2 45 -21 68 -19 19 -34 26 -52 22 -16 -3 -24 0 -24 10 0 19 27 28 45 13 18
-15 45 -6 45 14 0 19 -38 46 -65 46 -11 0 -31 -6 -44 -13z m63 -140 c16 -25
-16 -56 -38 -37 -19 15 -20 32 -4 48 15 15 28 11 42 -11z"/>
<path d="M2468 363 c-9 -3 -21 -16 -26 -31 l-10 -27 -11 28 c-6 15 -17 27 -24
27 -8 0 -20 -12 -27 -27 -13 -26 -14 -27 -17 -7 -3 15 -14 24 -35 28 -16 3
-33 4 -37 2 -10 -6 0 -96 10 -96 5 0 9 4 9 9 0 6 12 6 28 2 15 -5 36 -5 47 -1
23 8 62 6 86 -4 22 -9 93 10 109 29 17 21 25 19 38 -10 13 -28 47 -34 56 -10
6 16 49 12 74 -8 9 -7 12 -2 12 21 0 17 3 37 6 46 8 22 -30 34 -78 26 -21 -4
-55 -4 -75 -1 -48 9 -73 3 -73 -15 0 -8 -9 -14 -20 -14 -11 0 -23 -7 -26 -15
-4 -8 -10 -13 -15 -10 -14 9 2 35 22 35 21 0 26 16 7 22 -7 2 -21 3 -30 1z"/>
</g>
</svg>
