<!DOCTYPE svg PUBLIC "-//W3C//DTD SVG 20010904//EN"
 "http://www.w3.org/TR/2001/REC-SVG-20010904/DTD/svg10.dtd">
<svg version="1.0" xmlns="http://www.w3.org/2000/svg"
 width="666.000000pt" height="375.000000pt" viewBox="0 0 666.000000 375.000000"
 preserveAspectRatio="xMidYMid meet" fill='currentColor'>

<g transform="translate(0.000000,375.000000) scale(0.100000,-0.100000)"
fill="#000000" stroke="none">
<path d="M1515 3366 c-130 -31 -271 -121 -407 -257 -47 -48 -94 -89 -104 -91
-9 -1 -19 -10 -22 -18 -4 -12 -2 -13 9 -2 9 8 53 12 146 12 l134 0 -3 -157 -3
-158 -135 0 -135 0 -6 90 -5 90 -3 -85 -2 -85 -30 35 c-17 19 -34 34 -39 33
-15 -4 1 29 35 74 18 23 35 40 39 36 3 -3 6 17 6 46 l0 53 -44 -59 c-24 -32
-42 -62 -38 -68 3 -5 2 -7 -3 -3 -4 4 -14 3 -22 -4 -7 -6 -15 -9 -17 -7 -2 2
-27 38 -55 79 -29 41 -57 74 -63 72 -5 -1 -7 2 -3 8 7 12 -58 100 -113 153
-28 28 -51 40 -80 44 -80 11 -139 -52 -268 -283 -81 -144 -112 -191 -177 -267
-27 -32 -47 -60 -45 -63 3 -2 25 14 51 36 l45 40 75 -53 c143 -103 273 -122
401 -58 77 38 200 147 191 170 -3 8 -3 12 1 8 4 -4 15 0 25 9 16 14 21 11 65
-38 261 -290 473 -417 698 -418 238 0 488 168 716 483 l49 68 54 -73 c30 -40
81 -116 113 -168 76 -125 102 -158 136 -176 60 -31 110 11 182 154 45 90 136
323 136 348 0 26 18 15 62 -38 61 -73 79 -100 127 -193 44 -85 45 -63 3 43
-33 83 -107 197 -163 248 -131 120 -303 155 -444 90 -29 -13 -86 -53 -127 -89
l-75 -65 -111 119 c-227 238 -430 350 -637 348 -38 0 -93 -6 -120 -13z m330
-90 c38 -15 101 -47 140 -71 65 -41 206 -157 213 -177 2 -4 -46 -8 -107 -8
-92 0 -111 -3 -111 -15 0 -13 -25 -15 -165 -15 -149 0 -170 -2 -207 -21 l-42
-21 -43 21 c-35 17 -62 21 -143 21 -82 0 -100 3 -100 15 0 12 -16 15 -86 15
-47 0 -84 4 -82 8 7 18 137 127 201 169 76 50 116 68 202 95 89 27 236 20 330
-16z m-1276 -151 c26 -13 78 -78 205 -253 22 -31 42 -49 49 -45 7 3 9 3 5 -2
-4 -4 -2 -15 4 -23 10 -12 -3 -29 -77 -101 -50 -47 -115 -99 -145 -116 -48
-25 -66 -29 -136 -30 -76 0 -86 3 -167 43 -46 24 -95 54 -107 66 l-21 24 50
77 c28 43 75 120 103 173 98 176 162 226 237 187z m2311 -104 c25 -13 60 -34
78 -48 17 -13 37 -21 43 -18 7 5 7 1 1 -11 -6 -11 -29 -68 -52 -129 -61 -160
-146 -320 -182 -346 -44 -32 -68 -15 -145 103 -36 57 -76 111 -87 121 -12 10
-14 15 -7 11 16 -8 -6 26 -77 119 -42 56 -43 59 -27 78 37 40 127 102 182 125
77 33 203 30 273 -5z m-610 -171 l0 -160 -137 4 -138 3 -3 30 c-3 26 -6 29
-36 25 -27 -3 -50 8 -140 71 l-107 75 -90 -39 c-118 -51 -165 -50 -157 2 2 19
23 34 93 71 l90 47 171 1 c143 0 173 2 178 15 4 12 30 15 141 15 l135 0 0
-160z m-761 111 l33 -18 -45 -26 c-53 -32 -67 -60 -41 -88 25 -27 62 -24 163
17 l90 36 111 -77 c90 -62 111 -81 108 -99 -5 -35 -39 -30 -103 15 -91 63
-105 72 -105 63 1 -5 34 -31 75 -59 54 -36 75 -56 75 -71 0 -42 -31 -37 -118
21 -46 31 -86 54 -89 52 -2 -3 29 -28 71 -56 79 -54 90 -73 55 -92 -19 -9 -31
-4 -95 41 -41 28 -79 50 -84 48 -5 -2 15 -19 45 -38 30 -19 57 -41 60 -49 7
-19 -14 -43 -36 -39 -9 2 -103 50 -208 108 l-190 105 -1 113 0 112 98 0 c73
-1 105 -5 131 -19z m814 -66 l28 -36 -31 -39 c-18 -22 -34 -40 -36 -40 -2 0
-4 34 -4 75 0 41 3 75 8 75 4 0 20 -16 35 -35z m-1013 -200 c-29 -31 -25 -55
10 -68 17 -6 30 -17 30 -24 0 -16 39 -43 54 -37 6 2 16 -6 21 -18 7 -16 20
-24 43 -26 18 -2 42 -12 53 -23 25 -25 37 -24 83 7 23 16 54 27 75 28 25 1 38
7 46 22 9 18 14 19 34 10 20 -9 27 -6 47 17 13 15 29 27 35 27 17 0 49 30 49
47 0 7 9 13 20 13 23 0 43 32 34 54 -4 11 0 16 14 16 15 0 22 -8 24 -27 l3
-28 109 -5 110 -5 -33 -38 c-54 -61 -189 -164 -271 -206 -172 -90 -334 -101
-509 -35 -34 13 -68 21 -74 17 -5 -3 -7 -1 -4 5 4 6 -16 23 -47 40 -53 31
-125 88 -221 176 l-50 46 143 0 142 0 0 30 c0 28 1 29 25 18 l25 -11 -20 -22z
m90 -21 c0 -11 -45 -43 -60 -44 -17 0 -40 18 -40 32 0 4 10 16 21 27 20 18 24
19 50 5 16 -8 29 -17 29 -20z m55 -26 c14 -6 25 -14 25 -17 0 -12 -67 -51 -87
-51 -34 0 -38 32 -8 57 30 26 35 27 70 11z m83 -46 l24 -18 -42 -28 c-47 -31
-84 -31 -88 -1 -1 13 9 28 30 43 39 26 46 27 76 4z m73 -41 c24 -20 24 -20 4
-35 -45 -33 -63 -40 -80 -26 -22 18 -19 36 13 59 34 25 35 25 63 2z"/>
<path d="M3115 3125 c-17 -16 -25 -34 -24 -57 1 -19 3 -25 6 -13 2 11 6 30 9
42 2 12 17 29 32 37 15 9 21 15 14 16 -7 0 -24 -11 -37 -25z"/>
<path d="M3228 3122 c15 -15 29 -26 31 -25 6 4 -41 53 -50 53 -4 0 4 -13 19
-28z"/>
<path d="M3141 3063 c1 -32 4 -46 6 -30 5 35 35 36 53 2 7 -14 17 -25 22 -25
5 0 6 -6 2 -12 -4 -7 2 -4 14 6 12 11 22 24 22 29 0 6 -6 2 -14 -8 -13 -18
-14 -17 -31 9 -14 22 -16 29 -6 36 7 4 11 16 9 26 -2 14 -13 20 -41 22 l-37 3
1 -58z m67 30 c-2 -11 -14 -19 -31 -21 -22 -3 -27 1 -27 17 0 17 6 21 31 21
24 0 30 -4 27 -17z"/>
<path d="M3261 3064 c0 -11 3 -14 6 -6 3 7 2 16 -1 19 -3 4 -6 -2 -5 -13z"/>
<path d="M3100 3027 c0 -13 44 -47 59 -46 14 0 14 1 1 6 -8 3 -25 15 -37 26
-13 11 -23 18 -23 14z"/>
<path d="M3188 2983 c7 -3 16 -2 19 1 4 3 -2 6 -13 5 -11 0 -14 -3 -6 -6z"/>
<path d="M3773 2358 c-5 -7 -10 -34 -11 -60 -1 -26 -9 -65 -18 -85 -10 -21
-16 -44 -15 -50 3 -22 -18 -14 -35 12 -9 14 -26 25 -38 25 -11 1 -32 7 -46 15
-14 8 -38 14 -55 14 -42 1 -112 -33 -120 -58 -3 -12 -26 -34 -50 -51 -35 -24
-88 -95 -113 -152 -2 -5 14 -27 36 -50 22 -24 56 -61 76 -83 27 -31 34 -35 29
-18 -4 17 1 25 21 34 29 14 45 54 28 71 -8 8 -9 5 -5 -11 7 -25 -5 -27 -23 -3
-21 27 -16 52 11 62 30 11 31 15 8 18 -10 1 -27 3 -38 4 -13 2 -19 -2 -17 -11
4 -19 -27 -51 -50 -51 -20 0 -24 15 -7 25 9 6 31 50 33 67 1 4 9 13 19 21 17
12 17 14 3 26 -13 11 -19 11 -31 1 -9 -7 -18 -10 -22 -6 -8 8 1 17 47 43 33
20 37 20 73 6 43 -17 46 -27 15 -44 l-22 -12 21 -8 c14 -5 24 -20 28 -41 4
-21 15 -38 28 -43 32 -15 70 -76 56 -89 -8 -8 -13 -8 -16 1 -2 7 -18 28 -34
49 l-29 37 0 -32 c0 -19 5 -31 13 -31 8 0 22 -8 31 -19 9 -10 30 -21 46 -25
32 -6 70 -38 70 -58 0 -22 -21 -45 -27 -31 -2 7 -13 23 -24 35 -18 22 -20 22
-33 4 -16 -20 -38 -14 -30 8 3 7 -5 26 -18 40 l-23 27 -44 -41 c-24 -23 -40
-44 -36 -48 4 -4 12 1 19 11 17 22 36 22 36 -1 0 -9 -9 -42 -20 -72 -25 -66
-29 -153 -10 -200 19 -50 89 -140 104 -134 16 6 40 -185 40 -321 0 -112 -11
-145 -49 -145 -20 0 -25 -5 -25 -23 0 -27 -33 -62 -49 -52 -7 4 -11 -4 -11
-19 0 -14 5 -28 11 -32 7 -4 -1 -12 -19 -21 -29 -14 -62 -63 -42 -63 6 0 10
-17 11 -37 l1 -38 12 40 13 40 7 -35 c11 -51 3 -143 -11 -148 -9 -2 -13 9 -14
35 l-1 38 -10 -47 c-8 -39 -7 -54 8 -85 29 -59 50 -64 269 -66 123 -1 195 -6
195 -12 0 -6 -61 -10 -165 -10 -141 0 -165 -2 -165 -15 0 -13 26 -16 173 -17
94 -1 178 -2 185 -3 18 0 15 -18 -5 -23 -10 -3 7 -4 37 -4 31 0 41 2 23 4 -45
6 -42 23 5 24 235 5 241 5 245 -16 l4 -20 2 20 c1 19 7 20 98 18 54 -1 108 -5
121 -8 13 -4 22 -3 22 3 0 6 2 16 5 24 4 11 -24 13 -155 13 -101 0 -160 4
-160 10 0 6 66 11 175 12 l176 2 40 29 c45 33 89 88 89 110 0 8 9 30 21 48
l21 34 -21 34 c-12 18 -21 40 -21 47 0 8 -5 31 -11 51 -7 27 -17 40 -34 44
-17 4 -25 13 -25 28 0 27 -24 62 -53 77 l-22 12 23 -25 c23 -25 29 -48 12 -48
-5 0 -14 8 -20 18 -8 13 -13 14 -17 4 -4 -10 -9 -9 -24 4 -26 23 -25 48 1 41
11 -3 18 -1 14 4 -3 5 -11 9 -18 9 -19 0 -37 25 -46 63 l-8 32 -1 -36 c-1 -42
-9 -53 -28 -37 -11 8 -12 7 -7 -6 4 -9 18 -23 33 -30 14 -8 34 -28 44 -45 16
-28 17 -31 2 -31 -9 0 -19 9 -22 20 -7 26 -23 26 -23 1 0 -49 -35 -24 -72 50
-9 19 -33 71 -53 115 -35 81 -35 82 -35 228 0 88 4 146 10 146 18 0 89 -100
95 -133 3 -18 6 -59 8 -92 3 -51 4 -47 5 22 2 84 8 113 23 113 5 0 10 -42 10
-92 l1 -93 13 95 c15 109 30 155 74 227 31 50 74 163 65 172 -2 2 -13 -4 -24
-14 -19 -17 -21 -17 -40 0 -26 24 -25 37 4 64 27 25 43 14 21 -15 -21 -28 -18
-34 10 -21 23 11 25 16 20 47 -4 19 -17 59 -31 89 -13 29 -24 55 -24 57 0 12
28 1 50 -21 l26 -25 30 31 c16 18 53 56 82 85 28 29 52 58 52 64 0 10 -4 9
-15 0 -13 -10 -19 -9 -38 6 -34 30 -37 37 -22 61 18 27 19 59 3 69 -7 4 -8 3
-4 -4 4 -8 -4 -17 -21 -24 -22 -9 -24 -12 -10 -15 27 -7 20 -23 -10 -23 l-27
0 22 -20 c12 -12 22 -25 22 -29 0 -5 14 -14 30 -20 17 -5 30 -15 30 -20 0 -17
-32 -13 -69 9 -26 17 -42 20 -77 14 -44 -6 -44 -6 -44 24 0 33 22 57 45 48 8
-3 15 -1 15 4 0 5 -12 10 -27 12 -40 4 -42 34 -4 56 17 9 31 24 31 33 0 20
-44 69 -62 69 -7 -1 -1 -11 15 -23 15 -13 27 -30 27 -39 0 -9 -12 -21 -27 -26
-16 -6 -50 -31 -77 -56 -35 -33 -53 -43 -60 -36 -8 8 -6 19 5 39 16 27 16 30
-3 45 -18 16 -22 16 -64 0 -24 -9 -47 -14 -50 -11 -12 11 35 44 71 51 22 5 46
18 57 32 11 13 27 24 36 25 9 0 12 3 5 5 -6 3 -29 -6 -51 -21 -22 -14 -55 -28
-75 -32 -32 -5 -38 -2 -55 27 -11 17 -25 53 -32 78 -23 90 -24 92 -78 92 -38
0 -49 -4 -49 -16 0 -11 6 -14 21 -9 51 16 66 17 70 4 2 -8 9 -33 17 -57 17
-59 2 -73 -37 -34 -16 16 -36 31 -44 34 -12 4 -13 8 -3 19 10 13 7 14 -22 11
-37 -4 -47 12 -23 36 9 9 -23 12 -144 12 -113 0 -158 -3 -165 -12z m84 -13
c28 -12 39 -13 50 -3 11 9 16 9 24 -3 7 -12 9 -12 10 1 0 8 5 4 9 -10 l8 -25
1 28 c1 18 5 26 12 21 6 -3 9 -15 6 -25 -3 -11 -1 -19 4 -19 5 0 9 11 9 24 0
19 4 23 20 19 11 -3 20 -12 20 -20 0 -8 -4 -11 -10 -8 -5 3 -10 1 -10 -4 0 -6
7 -11 15 -11 8 0 15 9 15 20 0 11 5 20 11 20 6 0 9 -9 6 -20 -4 -16 5 -24 48
-44 30 -13 60 -34 67 -45 7 -12 20 -21 29 -21 30 0 46 -34 53 -107 5 -59 3
-74 -11 -88 -9 -10 -17 -35 -18 -61 -1 -31 -8 -51 -25 -69 -32 -34 -40 -32
-40 15 0 29 4 40 15 40 8 0 15 8 16 18 0 9 2 40 3 67 2 28 7 70 11 95 l8 45
-26 -30 c-25 -29 -27 -29 -44 -12 -15 15 -16 20 -4 39 12 19 11 20 -6 13 -58
-25 -94 4 -54 44 14 14 16 21 8 21 -8 0 -22 -9 -32 -21 -16 -17 -17 -25 -8
-50 11 -28 10 -31 -13 -41 -35 -16 -60 1 -56 37 3 27 -21 65 -41 65 -6 0 -3
-8 6 -18 23 -26 21 -41 -7 -48 -25 -6 -66 10 -66 26 0 6 15 11 33 11 31 2 31
2 4 6 -27 4 -57 -10 -57 -28 0 -5 6 -9 13 -9 7 0 21 -6 31 -13 17 -13 17 -15
-6 -41 l-24 -29 -26 32 c-30 35 -38 38 -38 16 0 -23 -18 -18 -36 10 -14 21
-15 31 -5 51 7 16 17 24 25 21 19 -8 27 29 10 44 -9 8 -11 16 -5 23 6 7 6 18
1 26 -9 15 4 40 22 40 5 0 25 -7 45 -15z m-269 -134 c7 -4 16 -21 21 -37 7
-26 11 -29 45 -26 39 4 91 -21 81 -39 -4 -5 -11 -7 -16 -4 -14 9 -11 -2 11
-45 14 -27 16 -41 9 -46 -12 -7 -28 13 -29 36 0 8 -23 29 -50 46 -55 35 -60
32 -60 -37 0 -21 -5 -39 -10 -39 -7 0 -7 -7 1 -21 18 -35 -4 -45 -41 -19 -29
20 -30 24 -15 33 10 5 13 12 9 16 -14 9 -34 49 -34 66 0 8 -13 21 -30 30 -50
26 -38 52 36 78 48 18 56 19 72 8z m77 -30 c10 -18 -17 -23 -33 -7 -15 15 -15
16 5 16 12 0 24 -4 28 -9z m406 -55 c-10 -12 -8 -13 10 -9 16 5 20 3 14 -6 -6
-10 -3 -11 13 -2 17 9 20 7 20 -14 0 -19 -8 -27 -32 -34 -30 -9 -30 -9 -5 -10
15 -1 38 8 52 19 14 11 27 20 30 20 2 0 3 -18 2 -40 -2 -42 -19 -70 -41 -70
-18 0 -17 10 1 34 18 24 20 45 3 28 -17 -17 -51 -15 -92 5 -33 15 -38 15 -77
-2 -40 -19 -42 -19 -55 0 -17 23 -18 39 -1 32 43 -16 59 -18 53 -8 -4 6 -15
11 -24 12 -14 0 -13 2 3 9 11 5 15 9 10 9 -6 1 -11 10 -11 21 0 14 5 19 16 14
37 -14 76 -15 95 -1 24 18 33 14 16 -7z m-296 -6 c3 -5 15 -10 26 -10 10 0 19
-4 19 -9 0 -14 -47 -67 -54 -61 -11 12 -18 90 -8 90 6 0 14 -4 17 -10z m595
-5 c0 -17 -76 -59 -91 -50 -15 10 0 26 45 46 50 23 46 22 46 4z m-689 -56 c31
-33 35 -44 20 -53 -12 -8 -81 53 -81 71 0 23 31 14 61 -18z m192 25 c3 -4 1
-16 -5 -27 -9 -17 -6 -24 17 -44 21 -19 30 -21 41 -12 12 9 19 8 37 -10 30
-27 46 -28 21 0 -16 17 -16 22 -4 29 25 16 59 11 70 -11 7 -11 10 -22 8 -23
-2 -1 -14 -7 -28 -13 -17 -8 -20 -12 -8 -12 9 -1 31 11 48 25 17 15 32 25 34
23 2 -2 1 -21 -2 -41 l-4 -38 -57 0 c-31 0 -65 -3 -77 -6 -15 -4 -23 1 -32 20
-6 14 -20 26 -30 26 -36 0 -62 29 -62 69 0 45 14 64 33 45z m617 -19 c0 -8 -5
-15 -10 -15 -6 0 -16 -11 -22 -25 -13 -29 -26 -32 -35 -8 -4 10 3 24 21 40 31
27 46 29 46 8z m-122 -7 c-3 -7 -19 -21 -37 -31 -25 -15 -34 -17 -46 -7 -13
11 -10 15 17 31 38 21 71 24 66 7z m-1008 -35 c0 -22 -49 -85 -61 -78 -17 11
-9 39 18 67 31 32 43 35 43 11z m466 -8 c9 -19 9 -28 -1 -42 -13 -17 -15 -17
-39 6 -28 27 -33 46 -13 54 26 11 42 6 53 -18z m666 3 c8 -21 -2 -38 -33 -53
-16 -9 -29 -23 -29 -31 0 -19 -20 -14 -34 8 -13 22 9 48 40 48 14 0 25 8 29
20 7 23 21 26 27 8z m-818 -27 c39 -41 24 -58 -20 -25 -34 27 -45 54 -21 54 7
0 26 -13 41 -29z m713 12 c3 -7 -15 -21 -38 -32 -52 -25 -49 -25 -49 -1 0 34
77 64 87 33z m-107 -8 c0 -8 -4 -15 -10 -15 -5 0 -10 7 -10 15 0 8 5 15 10 15
6 0 10 -7 10 -15z m-539 -24 c7 -18 6 -22 -9 -19 -9 2 -19 14 -20 27 -5 30 18
24 29 -8z m530 -48 c-10 -23 -10 -26 0 -15 21 20 32 14 24 -15 -8 -33 -24 -55
-35 -48 -14 9 -21 72 -10 100 8 21 14 25 22 17 9 -9 8 -19 -1 -39z m-613 21
c12 -8 32 -14 43 -12 14 2 29 -6 41 -23 18 -24 19 -31 8 -63 -15 -45 -26 -52
-41 -25 -9 18 -9 25 4 34 10 7 12 16 7 24 -10 17 -30 5 -30 -18 0 -30 -11 -31
-47 -4 -74 56 -59 139 15 87z m193 0 c8 -6 20 -13 27 -15 10 -3 6 -12 -12 -32
-27 -29 -46 -35 -46 -13 0 7 -7 19 -16 26 -8 8 -19 21 -24 30 -8 14 -4 17 24
16 19 -1 40 -6 47 -12z m709 4 c0 -6 -7 -19 -16 -29 -19 -21 -12 -37 22 -49
28 -11 41 -37 27 -51 -6 -6 -20 0 -39 16 -16 14 -35 30 -41 36 -18 14 -16 54
3 73 18 19 44 21 44 4z m-190 -11 c0 -17 -38 -52 -47 -44 -10 11 15 57 32 57
8 0 15 -6 15 -13z m115 -14 c-25 -48 -55 -77 -66 -66 -12 12 45 93 66 93 14 0
14 -3 0 -27z m175 -9 c0 -8 -4 -12 -10 -9 -5 3 -10 10 -10 16 0 5 5 9 10 9 6
0 10 -7 10 -16z m-52 -10 c24 -7 31 -44 8 -44 -8 0 -28 11 -43 25 -25 22 -26
24 -8 25 11 0 30 -3 43 -6z m-1214 -19 c19 -14 14 -35 -9 -35 -12 0 -25 21
-25 41 0 13 12 11 34 -6z m602 -36 c8 -6 14 -15 14 -20 0 -15 -32 -10 -52 8
-17 15 -18 15 -18 0 0 -10 -6 -17 -14 -17 -18 0 -60 56 -52 69 7 10 98 -20
122 -40z m150 36 c7 -17 -21 -65 -36 -65 -13 0 -13 36 0 61 13 23 28 25 36 4z
m254 1 c0 -7 -10 -21 -22 -29 l-23 -16 28 0 c32 -1 33 -7 10 -34 -18 -19 -17
-19 15 -12 38 8 40 0 7 -38 -23 -26 -45 -29 -45 -6 0 6 -9 29 -20 51 -25 51
-25 49 0 76 23 25 50 29 50 8z m-315 -41 c0 -14 -8 -21 -27 -23 -24 -3 -28 0
-28 23 0 23 4 26 28 23 19 -2 27 -9 27 -23z m391 -41 c-3 -8 -10 -14 -16 -14
-14 0 -13 37 2 63 13 22 13 22 16 -6 2 -16 1 -35 -2 -43z m-666 32 c0 -18 -17
-29 -30 -21 -8 5 -7 11 1 21 15 18 29 18 29 0z m506 -1 c-3 -8 -9 -22 -13 -31
-5 -13 -2 -15 16 -9 22 7 22 6 6 -24 -8 -17 -19 -31 -24 -31 -4 0 -14 19 -21
41 -13 38 -12 43 5 55 25 18 39 18 31 -1z m-78 -6 c-2 -6 -8 -10 -13 -10 -5 0
-11 4 -13 10 -2 6 4 11 13 11 9 0 15 -5 13 -11z m-698 -14 c0 -9 8 -27 17 -41
13 -21 14 -30 5 -45 -7 -10 -12 -28 -12 -39 0 -11 -4 -28 -9 -38 -5 -9 -15
-32 -22 -51 l-13 -34 -23 27 c-27 32 -33 67 -8 46 24 -20 28 -6 8 28 -21 37
-11 52 18 26 l22 -19 -17 33 c-20 39 -16 48 13 32 24 -12 28 1 6 20 -8 7 -15
25 -15 41 0 19 5 29 15 29 8 0 15 -7 15 -15z m330 -4 c0 -16 -31 -41 -51 -41
-24 0 -24 5 3 30 23 21 48 27 48 11z m320 -6 c0 -8 -7 -15 -15 -15 -16 0 -20
12 -8 23 11 12 23 8 23 -8z m-481 -9 c9 -11 9 -31 -3 -86 -8 -40 -17 -74 -19
-77 -10 -9 -28 39 -21 55 7 17 9 32 12 90 2 34 12 41 31 18z m61 4 c0 -5 -7
-10 -16 -10 -8 0 -12 5 -9 10 3 6 10 10 16 10 5 0 9 -4 9 -10z m170 -8 c0 -5
-9 -17 -20 -27 -11 -10 -20 -24 -20 -32 0 -7 -7 -13 -15 -13 -22 0 -18 30 7
57 21 23 48 31 48 15z m229 -33 c30 -28 12 -37 -26 -12 -33 21 -44 34 -37 45
6 10 31 -3 63 -33z m81 26 c7 -9 10 -18 7 -22 -8 -7 -37 15 -37 28 0 14 16 11
30 -6z m260 -10 c0 -14 -4 -25 -10 -25 -5 0 -10 11 -10 25 0 14 5 25 10 25 6
0 10 -11 10 -25z m-874 -17 c13 -24 14 -36 5 -49 -6 -10 -8 -25 -5 -32 3 -8
-2 -21 -10 -30 -9 -9 -13 -23 -10 -31 3 -9 1 -22 -4 -29 -6 -7 -7 -18 -2 -26
9 -16 3 -41 -11 -41 -5 0 -9 7 -9 15 0 8 -4 15 -10 15 -16 0 -51 40 -45 50 4
6 18 7 33 4 l27 -7 -23 25 c-25 27 -21 38 16 38 l25 0 -22 24 c-27 28 -20 50
12 40 21 -6 21 -6 5 13 -10 11 -18 27 -18 36 0 28 28 19 46 -15z m374 25 c0
-10 -72 -83 -82 -83 -17 0 -7 42 17 65 22 23 65 34 65 18z m84 -24 c25 -29 34
-59 19 -59 -10 0 -83 72 -83 82 0 20 41 5 64 -23z m130 5 c3 -9 3 -20 0 -25
-8 -13 -34 9 -34 27 0 19 26 18 34 -2z m-440 -18 c-3 -7 -18 -13 -35 -14 -16
0 -27 4 -23 9 3 5 9 7 14 4 4 -3 13 2 20 10 14 17 32 11 24 -9z m672 -20 c-9
-15 -12 -26 -6 -26 6 0 13 7 16 15 9 22 34 18 34 -5 0 -27 -45 -48 -68 -33
-25 15 -26 45 -1 72 29 31 49 13 25 -23z m-96 25 c0 -13 -29 -35 -37 -28 -7 8
15 37 28 37 5 0 9 -4 9 -9z m-510 -21 c0 -5 -9 -19 -20 -30 -22 -22 -40 -26
-40 -10 0 6 9 19 20 30 22 22 40 26 40 10z m226 -21 c23 -24 29 -40 31 -80 1
-27 -3 -49 -8 -49 -5 0 -9 5 -9 10 0 6 -16 20 -35 31 -19 12 -35 27 -35 35 0
17 1 17 34 4 40 -15 32 7 -9 24 -33 14 -44 34 -28 49 13 13 30 7 59 -24z m202
7 c3 -12 -1 -17 -10 -14 -7 3 -15 13 -16 22 -3 12 1 17 10 14 7 -3 15 -13 16
-22z m-98 -11 c16 -17 20 -29 14 -35 -12 -12 -54 23 -54 45 0 22 13 18 40 -10z
m-180 1 c0 -8 -11 -23 -25 -34 -14 -11 -25 -25 -25 -31 0 -16 -20 -13 -26 4
-3 8 6 27 23 44 30 32 53 39 53 17z m237 -1 c3 -9 3 -19 -1 -22 -7 -7 -36 16
-36 28 0 15 30 10 37 -6z m-502 -5 c3 -5 1 -10 -4 -10 -6 0 -11 5 -11 10 0 6
2 10 4 10 3 0 8 -4 11 -10z m165 -1 c0 -17 -20 -49 -30 -49 -14 0 -12 34 2 48
15 15 28 15 28 1z m470 -6 c0 -23 -17 -49 -26 -41 -9 10 4 58 16 58 6 0 10 -8
10 -17z m-594 -9 c-3 -9 -6 -18 -6 -20 0 -2 -7 -4 -15 -4 -13 0 -14 4 -5 20
13 24 35 27 26 4z m554 2 c0 -8 -4 -18 -10 -21 -5 -3 -10 3 -10 14 0 12 5 21
10 21 6 0 10 -6 10 -14z m-161 -35 c23 -32 26 -41 11 -41 -15 0 -50 38 -50 55
0 24 17 18 39 -14z m119 10 c3 -8 -1 -12 -9 -9 -7 2 -15 10 -17 17 -3 8 1 12
9 9 7 -2 15 -10 17 -17z m122 4 c0 -20 -22 -65 -32 -65 -11 0 -10 37 2 61 13
22 30 25 30 4z m-675 -15 c3 -5 -1 -10 -10 -10 -9 0 -13 5 -10 10 3 6 8 10 10
10 2 0 7 -4 10 -10z m105 -1 c0 -20 -21 -49 -35 -49 -19 0 -19 10 1 38 16 23
34 29 34 11z m400 -4 c7 -9 10 -18 7 -21 -10 -11 -37 5 -37 21 0 19 14 19 30
0z m-184 -49 c32 -30 56 -58 52 -61 -8 -9 -84 40 -97 62 -7 12 -13 14 -18 7
-5 -5 -16 -20 -25 -33 -22 -31 -41 -19 -27 17 11 28 37 62 49 62 4 0 33 -24
66 -54z m394 31 c0 -13 -9 -32 -20 -42 -18 -16 -20 -16 -20 -2 0 22 21 67 32
67 4 0 8 -11 8 -23z m-537 1 c6 -17 -24 -68 -40 -68 -18 0 -16 40 4 62 19 21
30 23 36 6z m-246 -44 c-5 -27 -3 -32 10 -27 13 5 15 2 10 -17 -3 -13 -1 -30
5 -37 6 -8 8 -17 4 -21 -11 -10 -66 55 -66 78 0 11 5 20 11 20 5 0 9 8 8 18
-2 28 0 34 12 26 7 -4 9 -20 6 -40z m106 21 c-3 -8 -12 -15 -19 -15 -12 0 -12
4 -4 20 12 23 32 18 23 -5z m517 10 c0 -8 -7 -15 -15 -15 -8 0 -15 7 -15 15 0
8 7 15 15 15 8 0 15 -7 15 -15z m64 -1 c11 -29 6 -51 -16 -70 -21 -19 -21 -19
-15 6 4 14 7 37 7 53 0 30 14 36 24 11z m-164 -61 c0 -21 -17 -15 -39 13 -33
42 -27 63 9 29 17 -16 30 -35 30 -42z m-463 51 c-3 -3 -12 -4 -19 -1 -8 3 -5
6 6 6 11 1 17 -2 13 -5z m507 -27 c12 -19 3 -32 -19 -24 -17 7 -21 51 -3 45 6
-2 16 -12 22 -21z m246 -6 c0 -23 -25 -46 -34 -32 -7 11 14 51 26 51 5 0 8 -8
8 -19z m-980 -38 c0 -7 -4 -13 -8 -13 -12 0 -32 46 -24 55 8 8 32 -24 32 -42z
m286 21 c-3 -9 -6 -18 -6 -20 0 -2 -7 -4 -15 -4 -18 0 -19 12 -3 28 17 17 31
15 24 -4z m50 0 c-3 -8 -1 -24 5 -35 11 -21 -2 -49 -22 -49 -10 0 -12 83 -2
93 12 13 25 7 19 -9z m-111 -4 c3 -5 -1 -10 -10 -10 -9 0 -13 5 -10 10 3 6 8
10 10 10 2 0 7 -4 10 -10z m192 -25 c-7 -17 -34 -31 -44 -22 -3 4 2 18 12 33
18 28 43 20 32 -11z m363 25 c0 -5 -4 -10 -10 -10 -5 0 -10 5 -10 10 0 6 5 10
10 10 6 0 10 -4 10 -10z m229 -29 c-15 -34 -29 -41 -29 -14 0 17 30 56 38 49
2 -3 -2 -19 -9 -35z m-929 -30 c-1 -16 -38 -68 -43 -60 -24 34 -35 59 -28 64
5 3 12 1 16 -5 15 -24 24 -7 11 19 -9 16 -12 31 -9 35 10 9 53 -35 53 -53z
m420 47 c0 -16 -31 -48 -47 -48 -19 0 -16 10 9 37 24 25 38 30 38 11z m61 -7
c13 -11 21 -23 17 -26 -9 -9 -58 21 -58 35 0 15 15 12 41 -9z m103 0 c27 -29
15 -50 -12 -23 -22 22 -29 42 -14 42 5 0 17 -9 26 -19z m226 1 c0 -19 -18 -42
-32 -42 -12 0 -9 35 4 48 17 17 28 15 28 -6z m-161 -11 c7 -5 11 -14 7 -19 -9
-15 -36 -4 -36 14 0 16 9 18 29 5z m87 -32 c-3 -17 -6 -42 -6 -55 0 -13 -4
-24 -9 -24 -16 0 -21 32 -11 71 13 47 35 54 26 8z m104 -14 c-15 -28 -40 -41
-40 -21 0 7 10 26 22 41 25 32 38 17 18 -20z m-760 -26 c0 -18 -28 -8 -44 16
-25 38 -8 54 21 21 12 -15 23 -31 23 -37z m131 38 c-13 -13 -26 -3 -16 12 3 6
11 8 17 5 6 -4 6 -10 -1 -17z m487 12 c-2 -6 -8 -10 -13 -10 -5 0 -11 4 -13
10 -2 6 4 11 13 11 9 0 15 -5 13 -11z m-528 -33 c-8 -8 -13 -7 -20 4 -12 20
-1 33 16 19 11 -9 12 -15 4 -23z m146 -14 c-17 -17 -26 -22 -26 -12 0 19 44
64 48 50 3 -7 -7 -24 -22 -38z m134 41 c-1 -13 -48 -63 -60 -63 -16 0 -12 15
11 44 19 24 49 36 49 19z m115 -18 c26 -25 33 -55 14 -55 -6 0 -16 13 -22 30
-8 22 -16 28 -29 24 -18 -5 -24 6 -11 19 11 12 23 8 48 -18z m-75 0 c16 -19 3
-40 -16 -24 -15 13 -19 39 -5 39 5 0 14 -7 21 -15z m389 -31 c-7 -13 -16 -24
-21 -24 -13 0 -9 24 9 50 21 30 31 9 12 -26z m-244 18 c0 -18 -20 -15 -23 4
-3 10 1 15 10 12 7 -3 13 -10 13 -16z m135 10 c0 -5 -7 -17 -15 -28 -14 -19
-14 -19 -15 2 0 11 3 24 7 27 9 10 23 9 23 -1z m-664 -49 c-14 -14 -23 4 -13
27 l10 25 5 -23 c2 -13 1 -26 -2 -29z m-64 2 c6 -13 14 -22 19 -20 4 3 10 1
13 -4 4 -5 1 -13 -5 -17 -12 -7 -59 38 -59 57 0 18 21 8 32 -16z m178 15 c0
-12 -41 -30 -53 -23 -4 2 -5 9 -1 14 3 5 9 7 14 4 5 -3 11 -1 15 5 8 13 25 13
25 0z m31 -23 c-8 -8 -11 -7 -11 4 0 20 13 34 18 19 3 -7 -1 -17 -7 -23z m94
-11 c-10 -14 -21 -26 -26 -26 -18 0 -17 19 2 45 28 35 48 18 24 -19z m325 34
c0 -5 -4 -10 -10 -10 -5 0 -10 5 -10 10 0 6 5 10 10 10 6 0 10 -4 10 -10z
m-503 -107 c29 -177 29 -196 -4 -265 -17 -35 -40 -95 -52 -134 -19 -61 -27
-73 -56 -87 -42 -20 -66 -6 -58 34 4 22 12 28 44 33 42 7 56 36 18 36 -21 0
-21 3 -14 88 4 48 9 137 10 198 l2 112 39 45 c22 25 43 42 48 37 5 -5 15 -48
23 -97z m355 75 c-15 -15 -26 -4 -18 18 5 13 9 15 18 6 9 -9 9 -15 0 -24z
m-41 1 c10 -19 7 -25 -17 -45 -16 -13 -32 -23 -36 -24 -13 0 -9 17 7 30 8 7
15 23 15 36 0 30 16 31 31 3z m-72 -24 c-19 -32 -39 -39 -39 -13 0 16 31 48
46 48 10 0 7 -10 -7 -35z m381 20 c0 -8 -4 -15 -10 -15 -5 0 -10 7 -10 15 0 8
5 15 10 15 6 0 10 -7 10 -15z m-153 -51 c8 -26 12 -32 12 -16 2 38 21 24 21
-15 -1 -58 -19 -173 -31 -192 -7 -12 -9 4 -5 59 5 81 -5 78 -23 -7 -8 -41 -7
-61 4 -100 8 -26 15 -67 15 -90 0 -23 4 -44 9 -48 9 -5 41 -62 41 -72 0 -1 -6
-3 -13 -3 -20 0 -76 104 -95 177 -12 50 -18 61 -20 41 -2 -15 1 -35 6 -45 6
-10 13 -44 17 -76 6 -45 10 -55 20 -47 17 14 26 0 18 -28 -4 -18 -13 -22 -45
-22 -35 0 -39 2 -32 18 12 28 17 112 6 112 -6 0 -13 -6 -15 -12 -12 -30 -5 72
8 122 8 30 14 71 14 90 l-1 35 -12 -34 c-17 -46 -33 -50 -41 -9 -9 48 -2 131
11 135 7 2 17 -10 22 -27 15 -41 21 -38 15 8 -5 34 -1 42 27 66 18 15 38 25
44 23 6 -2 16 -21 23 -43z m123 36 c0 -5 -7 -10 -15 -10 -8 0 -15 5 -15 10 0
6 7 10 15 10 8 0 15 -4 15 -10z m85 0 c10 -16 -16 -43 -28 -31 -11 11 -2 41
12 41 5 0 13 -5 16 -10z m-545 -38 c26 -27 28 -27 39 -9 32 51 54 -59 35 -175
-10 -56 -22 -46 -30 22 -8 68 -24 91 -24 33 0 -54 25 -180 40 -198 16 -19 4
-35 -25 -35 -13 0 -31 -10 -40 -22 -17 -25 -4 -38 19 -19 11 9 19 6 35 -15 22
-28 28 -64 11 -64 -5 0 -18 9 -29 21 -19 20 -19 20 -25 1 -4 -11 -14 -23 -24
-26 -9 -3 -22 -8 -28 -11 -7 -4 -13 8 -16 32 -4 29 0 41 16 54 17 14 19 20 9
42 -7 14 -14 54 -18 89 -3 35 -11 111 -17 170 -8 85 -8 111 2 123 18 22 38 18
70 -13z m-100 -70 c-7 -12 -9 -2 -9 38 1 55 1 55 10 17 6 -24 5 -45 -1 -55z
m-167 44 c13 -34 18 -106 9 -122 -10 -17 -11 -17 -16 6 -12 59 -16 130 -7 130
5 0 11 -6 14 -14z m431 -48 c9 -12 16 -42 16 -66 0 -24 7 -70 15 -102 12 -45
13 -82 8 -157 l-8 -98 -40 0 c-64 0 -70 23 -67 244 1 101 5 188 8 192 10 17
53 9 68 -13z m-235 -259 c1 -48 -12 -69 -41 -69 -19 0 -24 15 -9 24 5 4 12 24
15 46 3 22 9 59 13 83 l7 42 7 -40 c4 -22 8 -60 8 -86z m451 35 c15 -39 13
-104 -4 -104 -19 0 -26 22 -26 81 0 53 15 64 30 23z m-470 -194 c-8 -13 -9
-12 -10 3 0 10 -4 15 -10 12 -13 -8 -13 7 1 42 l12 28 8 -35 c4 -19 3 -41 -1
-50z m500 49 c7 -11 9 -24 5 -27 -7 -7 -35 25 -35 40 0 16 19 8 30 -13z m-720
-8 c0 -20 -17 -37 -27 -28 -7 8 7 47 18 47 5 0 9 -9 9 -19z m180 5 c0 -15 -24
-28 -34 -19 -7 7 13 33 25 33 5 0 9 -6 9 -14z m600 -30 c0 -8 -4 -18 -10 -21
-5 -3 -10 3 -10 14 0 12 5 21 10 21 6 0 10 -6 10 -14z m-800 -31 c0 -8 -4 -15
-10 -15 -5 0 -10 7 -10 15 0 8 5 15 10 15 6 0 10 -7 10 -15z m-50 -25 c0 -5
-4 -10 -10 -10 -5 0 -10 5 -10 10 0 6 5 10 10 10 6 0 10 -4 10 -10z m600 -11
c0 -5 9 -9 20 -9 11 0 23 -7 26 -15 4 -8 12 -15 20 -15 8 0 14 -7 14 -15 0 -8
4 -15 8 -15 26 0 54 -151 31 -165 -5 -4 -9 -12 -9 -20 0 -19 -73 -95 -92 -95
-8 0 -18 -3 -22 -7 -11 -11 -105 -13 -111 -2 -4 5 -15 9 -26 9 -11 0 -22 7
-25 15 -4 8 -12 15 -20 15 -8 0 -14 5 -14 11 0 6 -6 17 -14 25 -15 15 -38 105
-32 126 2 7 7 22 12 33 4 11 8 26 10 32 4 20 72 83 89 83 8 0 15 4 15 9 0 5
27 9 60 9 33 0 60 -4 60 -9z m-521 -45 c18 -15 33 -39 37 -59 8 -47 23 -56 97
-61 70 -4 76 1 77 63 0 21 51 73 72 73 5 0 -4 -19 -21 -42 -17 -23 -31 -54
-31 -68 0 -18 -9 -31 -30 -43 -41 -25 -38 -48 15 -100 43 -43 56 -67 36 -67
-5 0 -12 9 -16 20 -7 23 -64 60 -92 60 -10 0 -28 6 -38 14 -14 10 -23 11 -37
3 -14 -9 -22 -7 -40 10 l-23 22 -32 -39 c-18 -21 -33 -48 -33 -59 0 -12 -4
-21 -10 -21 -18 0 -10 46 11 66 12 11 18 26 15 38 -3 11 0 26 6 33 7 9 7 17
-1 27 -7 9 -8 22 -3 37 9 26 5 59 -7 59 -4 0 -7 -10 -6 -22 0 -37 -20 -36 -23
0 -3 33 19 82 37 82 5 0 23 -12 40 -26z m711 -9 l9 -25 34 19 34 19 16 -28
c16 -26 15 -28 -8 -50 -25 -24 -36 -90 -15 -90 6 0 10 17 10 39 0 33 4 41 32
54 18 9 36 13 40 11 12 -8 10 -44 -3 -44 -6 0 -9 -7 -6 -15 4 -8 0 -33 -7 -57
-8 -24 -19 -62 -27 -86 -16 -56 -34 -68 -26 -18 5 33 2 41 -24 65 -26 24 -30
35 -32 86 -2 45 -6 60 -20 64 -9 4 -26 23 -37 44 l-20 37 20 0 c13 0 24 -10
30 -25z m354 -66 c7 -54 -1 -139 -14 -139 -4 0 -10 18 -13 41 -6 48 3 149 13
149 4 0 10 -23 14 -51z m-45 -64 c1 -75 -11 -115 -22 -73 -9 30 -9 107 0 149
5 28 7 30 14 14 4 -11 8 -51 8 -90z m-302 6 c1 -38 -3 -50 -19 -60 -11 -7 -21
-11 -22 -9 -1 2 0 31 2 64 3 52 6 61 20 57 13 -3 17 -17 19 -52z m-473 -45 c7
-34 5 -38 -7 -28 -7 7 -16 10 -19 7 -3 -3 -11 1 -18 10 -10 12 -8 18 11 34 13
11 25 19 25 18 1 -1 5 -20 8 -41z m694 32 c14 -14 16 -64 3 -72 -5 -3 -18 -26
-30 -51 -12 -25 -26 -43 -32 -40 -6 4 3 28 21 59 31 56 31 77 -1 45 -25 -25
-54 -26 -44 -1 3 9 9 29 12 45 4 21 11 27 32 27 15 0 32 -5 39 -12z m-998 -57
c0 -6 -5 -13 -11 -17 -6 -3 -19 -20 -30 -38 -16 -26 -19 -28 -19 -10 0 12 9
33 21 48 21 26 39 34 39 17z m825 -67 c-8 -20 -15 -38 -15 -40 0 -2 -7 -4 -17
-4 -14 0 -15 2 -1 18 9 9 19 27 22 40 4 12 12 22 17 22 5 0 2 -16 -6 -36z
m185 -14 c0 -16 -4 -30 -10 -30 -5 0 -10 14 -10 30 0 17 5 30 10 30 6 0 10
-13 10 -30z m-600 -70 c0 -5 -5 -10 -11 -10 -5 0 -7 5 -4 10 3 6 8 10 11 10 2
0 4 -4 4 -10z m30 0 c0 -5 -4 -10 -10 -10 -5 0 -10 5 -10 10 0 6 5 10 10 10 6
0 10 -4 10 -10z m83 1 c49 -2 28 -16 -23 -16 -29 0 -50 5 -50 11 0 6 10 10 23
8 12 -1 34 -3 50 -3z m57 -7 c0 -8 -5 -12 -10 -9 -6 4 -8 11 -5 16 9 14 15 11
15 -7z m60 6 c0 -5 -4 -10 -10 -10 -5 0 -10 5 -10 10 0 6 5 10 10 10 6 0 10
-4 10 -10z"/>
<path d="M3925 2310 c-3 -5 -26 -10 -51 -10 -48 0 -59 -14 -20 -24 28 -7 72
10 80 30 6 16 0 19 -9 4z"/>
<path d="M4130 2229 c0 -5 -4 -8 -9 -5 -4 3 -16 0 -25 -7 -14 -10 -10 -12 23
-12 35 -1 38 1 30 17 -11 20 -19 23 -19 7z"/>
<path d="M3815 2209 c-4 -6 -5 -12 -2 -15 2 -3 7 2 10 11 7 17 1 20 -8 4z"/>
<path d="M3550 2105 c0 -12 -5 -26 -12 -33 -8 -8 -8 -12 -1 -12 21 0 35 28 24
47 -10 17 -10 17 -11 -2z"/>
<path d="M3639 1899 c13 -11 27 -17 30 -13 7 7 -28 34 -43 34 -6 -1 0 -10 13
-21z"/>
<path d="M3712 1136 c-7 -38 -11 -71 -8 -73 8 -9 27 78 24 110 -2 24 -6 16
-16 -37z"/>
<path d="M4065 743 c-6 -25 -8 -26 -14 -9 -7 19 -8 19 -15 0 -8 -19 -8 -19
-16 1 -8 18 -9 18 -10 -5 l0 -25 -21 25 -20 25 17 -34 16 -35 -43 34 -44 34
34 -37 c38 -40 36 -45 -9 -22 -40 21 -38 12 3 -15 l32 -21 -35 5 -35 6 30 -15
30 -14 -35 -2 c-31 -2 -32 -3 -7 -6 15 -2 27 -8 27 -12 0 -4 -12 -12 -27 -18
-27 -11 -27 -11 7 -6 l35 5 -25 -21 -25 -21 28 10 c41 15 43 13 16 -17 -17
-20 -18 -23 -3 -10 26 22 35 22 27 0 -6 -16 -5 -16 10 -4 15 12 17 11 18 -5 0
-18 1 -18 8 1 8 19 8 19 19 0 11 -20 11 -20 12 0 0 17 2 17 10 5 8 -12 10 -12
10 5 0 18 2 18 21 -5 l20 -25 -17 35 -17 35 29 -25 28 -25 -18 28 -17 28 33
-16 33 -17 -30 25 -30 25 30 -4 c30 -4 30 -4 5 7 l-25 12 25 7 25 8 -25 1
c-25 2 -25 2 5 16 l30 14 -35 -6 -35 -5 33 22 c40 27 42 36 2 15 -43 -22 -47
-19 -14 17 23 27 24 29 3 10 -31 -27 -43 -28 -29 -3 17 32 11 38 -11 11 l-20
-25 6 33 c8 39 0 43 -10 5z m-1 -89 c12 -12 13 -20 6 -35 -12 -21 -40 -25 -58
-7 -16 16 -15 23 4 42 19 20 29 20 48 0z"/>
<path d="M4025 641 c-7 -12 12 -24 25 -16 11 7 4 25 -10 25 -5 0 -11 -4 -15
-9z"/>
<path d="M3537 738 c11 -13 24 -36 27 -53 10 -38 24 -55 47 -55 19 0 26 16 10
22 -5 2 -20 27 -35 56 -20 38 -32 52 -48 52 l-21 0 20 -22z"/>
<path d="M4325 730 c-9 -15 4 -30 27 -30 14 0 18 5 14 16 -3 9 -6 18 -6 20 0
8 -29 4 -35 -6z"/>
<path d="M4160 2306 c0 -8 5 -18 10 -21 6 -3 10 3 10 14 0 12 -4 21 -10 21 -5
0 -10 -6 -10 -14z"/>
<path d="M112 1883 c3 -378 3 -377 100 -479 186 -198 500 -145 616 104 23 48
27 70 27 147 0 76 -4 99 -27 147 -35 75 -94 138 -170 179 -63 34 -64 34 -228
39 l-164 5 -8 45 c-4 25 -16 56 -26 70 -24 33 -80 70 -104 70 -18 0 -19 -11
-16 -327z m456 -19 c153 -63 184 -263 60 -381 -43 -41 -80 -55 -152 -54 -76 0
-138 36 -181 105 -29 48 -30 53 -33 198 l-3 148 136 0 c100 0 145 -4 173 -16z"/>
<path d="M1675 2020 c-159 -5 -161 -5 -223 -39 -75 -41 -135 -103 -170 -179
-26 -56 -27 -62 -30 -290 l-3 -233 28 7 c35 8 71 32 97 68 19 24 22 46 26 199
6 189 11 206 72 263 51 49 76 57 180 64 77 5 104 10 125 27 34 25 66 76 61
100 -3 17 -15 18 -163 13z"/>
<path d="M3025 2020 c-136 -5 -167 -9 -208 -27 -65 -30 -148 -112 -183 -180
-26 -53 -29 -67 -29 -158 0 -87 3 -107 27 -157 35 -76 104 -142 186 -181 64
-30 74 -31 220 -35 168 -5 169 -4 137 57 -31 61 -64 77 -168 84 -107 6 -157
26 -202 79 -40 48 -55 89 -55 156 0 48 6 67 33 112 46 77 110 110 216 110 92
0 144 25 173 82 33 63 32 64 -147 58z"/>
<path d="M1002 1696 l3 -325 30 -32 c28 -29 80 -59 105 -59 7 0 10 103 10 308
0 278 -2 311 -19 348 -20 43 -73 84 -110 84 l-22 0 3 -324z"/>
<path d="M2025 2007 c-90 -30 -175 -105 -222 -197 -25 -49 -28 -65 -28 -155 0
-87 3 -107 27 -157 35 -75 104 -142 186 -181 l67 -32 233 -3 234 -4 -4 234
c-3 229 -3 234 -30 290 -34 74 -112 152 -186 186 -46 22 -74 27 -147 29 -54 2
-106 -3 -130 -10z m203 -143 c47 -19 88 -58 115 -109 19 -35 21 -57 22 -185
l0 -145 -85 -3 c-200 -8 -280 23 -332 127 -46 89 -34 182 30 253 66 73 165 98
250 62z"/>
<path d="M6370 1820 c-11 -11 -20 -23 -21 -27 0 -5 -1 -36 -2 -71 l-2 -62 30
0 c22 0 26 3 17 12 -7 7 -12 29 -12 50 0 31 5 40 22 47 l22 8 -22 5 c-24 7
-27 15 -12 38 9 13 11 13 19 0 6 -8 13 -11 18 -7 7 8 -14 27 -29 27 -5 0 -17
-9 -28 -20z"/>
<path d="M4718 1749 c3 -52 0 -74 -10 -80 -8 -5 13 -9 54 -9 81 0 108 20 108
82 0 57 -26 78 -97 78 l-58 0 3 -71z m106 45 c9 -8 16 -30 16 -47 0 -46 -25
-77 -61 -77 l-29 0 0 70 0 70 29 0 c16 0 37 -7 45 -16z"/>
<path d="M5432 1785 c-7 -8 -8 -15 -3 -15 6 0 11 -24 13 -52 3 -51 4 -53 33
-55 17 -1 22 1 13 3 -14 4 -18 16 -18 55 0 28 5 49 11 49 6 0 4 7 -5 15 -18
18 -27 18 -44 0z"/>
<path d="M6039 1788 c-3 -41 4 -105 13 -115 6 -7 20 -13 32 -13 19 1 19 2 4
11 -13 7 -18 23 -18 54 0 33 4 45 18 48 16 4 16 5 0 6 -10 0 -18 6 -18 11 0
15 -30 12 -31 -2z"/>
<path d="M4917 1768 c-28 -22 -32 -63 -8 -87 22 -22 85 -29 96 -11 4 7 -2 9
-19 4 -28 -7 -56 9 -56 32 0 9 12 14 35 14 27 0 35 4 35 18 0 38 -48 56 -83
30z m53 -18 c0 -13 -7 -20 -20 -20 -19 0 -27 20 -13 33 13 14 33 6 33 -13z"/>
<path d="M5028 1773 c16 -6 16 -135 0 -151 -9 -9 -3 -12 27 -12 30 0 36 3 27
12 -7 7 -12 19 -12 29 0 12 9 16 37 15 31 -1 39 3 46 25 21 57 -17 104 -63 79
-13 -7 -20 -7 -20 0 0 5 -12 10 -27 9 -16 0 -22 -3 -15 -6z m100 -49 c3 -34
-17 -58 -42 -48 -10 4 -16 18 -16 38 0 39 7 48 35 44 14 -2 21 -12 23 -34z"/>
<path d="M5197 1773 c-14 -13 -7 -25 8 -13 8 7 22 10 30 6 26 -9 17 -31 -17
-41 -26 -8 -33 -15 -33 -35 0 -23 4 -25 50 -26 l50 -2 -3 47 c-2 27 -10 51
-20 59 -17 13 -54 16 -65 5z m53 -72 c0 -11 -5 -23 -11 -27 -15 -9 -33 12 -26
30 9 23 37 20 37 -3z"/>
<path d="M5315 1720 c0 -59 0 -60 29 -60 24 0 26 2 16 14 -6 8 -10 34 -8 58 3
37 0 43 -17 46 -18 2 -20 -3 -20 -58z"/>
<path d="M5376 1771 c-3 -5 1 -11 9 -15 9 -3 15 0 15 9 0 16 -16 20 -24 6z"/>
<path d="M5518 1768 c7 -7 12 -28 12 -48 0 -20 -5 -41 -12 -48 -9 -9 -5 -12
21 -12 29 0 32 2 21 15 -7 9 -10 29 -8 48 7 43 1 57 -25 57 -16 0 -18 -3 -9
-12z"/>
<path d="M5575 1770 c-3 -5 1 -10 10 -10 14 0 16 -9 13 -50 -3 -50 -3 -50 27
-50 21 0 26 3 16 9 -10 6 -12 21 -9 49 4 23 1 45 -5 51 -14 14 -44 14 -52 1z"/>
<path d="M5655 1771 c-3 -6 1 -11 10 -11 14 0 16 -9 13 -50 -3 -50 -3 -50 27
-50 17 0 25 3 18 8 -6 4 -13 30 -15 57 -3 42 -6 50 -25 53 -11 2 -24 -2 -28
-7z"/>
<path d="M5762 1764 c-27 -19 -29 -64 -4 -87 19 -18 92 -24 92 -8 0 5 -9 7
-19 4 -24 -6 -61 13 -61 32 0 11 12 15 40 15 44 0 52 16 24 44 -20 20 -43 20
-72 0z m56 -17 c3 -12 -3 -17 -22 -17 -25 0 -35 18 -19 34 12 12 38 2 41 -17z"/>
<path d="M5879 1771 c9 -6 12 -24 10 -60 -4 -51 -4 -51 26 -51 20 0 26 3 17 9
-8 5 -12 23 -10 47 2 32 7 40 27 42 22 4 23 1 20 -47 -4 -51 -4 -51 26 -50 17
0 24 3 18 6 -8 3 -13 24 -13 53 0 40 -4 50 -20 55 -10 3 -28 1 -40 -5 -13 -7
-20 -7 -20 0 0 5 -12 10 -27 10 -20 0 -24 -3 -14 -9z"/>
<path d="M6210 1760 c-40 -40 -12 -100 45 -100 41 0 65 22 65 60 0 54 -71 79
-110 40z m71 -14 c17 -37 4 -78 -24 -74 -17 2 -23 11 -25 36 -2 19 -1 40 2 48
8 22 35 16 47 -10z"/>
<path d="M4870 1535 c0 -8 7 -15 15 -15 8 0 15 7 15 15 0 8 -7 15 -15 15 -8 0
-15 -7 -15 -15z"/>
<path d="M5518 1538 c7 -7 12 -40 12 -78 0 -38 -5 -71 -12 -78 -9 -9 -5 -12
18 -12 28 0 29 1 29 52 0 46 3 53 20 53 16 0 21 -8 23 -38 2 -21 -2 -45 -9
-53 -10 -12 -2 -14 52 -14 l64 0 0 52 c0 46 3 53 20 53 16 0 21 -8 23 -38 2
-21 -2 -45 -9 -53 -10 -12 -5 -14 27 -13 22 0 33 3 27 6 -8 3 -13 24 -13 53 0
55 -18 74 -55 60 -12 -5 -28 -4 -36 1 -8 5 -20 9 -28 9 -10 0 -11 -3 -2 -14
19 -22 10 -100 -11 -104 -15 -3 -18 4 -18 42 0 56 -20 79 -55 66 -24 -9 -25
-8 -25 25 0 31 -3 35 -27 35 -21 0 -24 -3 -15 -12z"/>
<path d="M5968 1543 c16 -6 17 -144 0 -161 -9 -9 -3 -12 27 -12 30 0 36 3 27
12 -7 7 -12 43 -12 90 l0 78 -27 -1 c-16 0 -22 -3 -15 -6z"/>
<path d="M4708 1534 c16 -7 16 -136 0 -152 -9 -9 -1 -12 36 -12 26 0 56 5 67
10 24 13 25 56 2 69 -16 9 -16 11 2 31 31 35 10 55 -61 57 -32 1 -53 0 -46 -3z
m86 -27 c9 -15 7 -21 -8 -32 -25 -19 -36 -11 -36 26 0 23 4 30 16 27 9 -2 22
-11 28 -21z m4 -88 c2 -17 -3 -29 -13 -33 -25 -9 -35 1 -35 35 0 26 3 30 23
27 15 -2 23 -11 25 -29z"/>
<path d="M5070 1525 c0 -8 5 -15 10 -15 6 0 10 5 10 10 0 6 11 10 25 10 24 0
25 -2 25 -68 0 -40 -5 -73 -12 -80 -9 -9 -3 -12 28 -11 21 0 33 3 27 6 -9 3
-13 29 -13 79 0 65 2 74 18 74 10 0 23 -5 30 -12 9 -9 12 -8 12 5 0 15 -11 17
-80 17 -64 0 -80 -3 -80 -15z"/>
<path d="M4868 1449 c3 -31 0 -54 -8 -64 -11 -13 -7 -15 25 -15 29 0 35 3 27
13 -6 7 -12 34 -14 61 -2 36 -7 50 -19 51 -13 2 -15 -5 -11 -46z"/>
<path d="M4962 1488 c-46 -22 -38 -99 12 -112 77 -19 122 80 50 112 -29 14
-32 14 -62 0z m62 -33 c8 -31 -9 -75 -29 -75 -20 0 -38 46 -29 74 13 42 48 42
58 1z"/>
<path d="M5280 1487 c-20 -10 -25 -20 -25 -52 0 -34 4 -42 28 -53 20 -10 35
-11 55 -4 l27 10 -31 1 c-17 1 -36 7 -41 14 -15 18 -14 75 2 81 16 6 39 -19
30 -34 -3 -6 3 -10 14 -10 26 0 27 14 1 40 -23 23 -27 24 -60 7z"/>
<path d="M5413 1490 c-27 -11 -39 -53 -25 -85 12 -26 67 -44 85 -26 8 8 4 11
-14 11 -33 0 -49 17 -49 52 0 37 37 59 57 32 11 -15 13 -15 13 -2 0 9 -7 19
-16 22 -19 7 -23 7 -51 -4z"/>
<path d="M5853 1490 c-44 -18 -41 -94 4 -111 73 -28 127 53 67 100 -29 23 -38
24 -71 11z m60 -38 c11 -56 -29 -96 -53 -53 -14 28 -12 57 5 75 21 20 42 11
48 -22z"/>
<path d="M6072 1488 c-46 -22 -38 -99 12 -112 77 -19 122 80 50 112 -29 14
-32 14 -62 0z m62 -33 c8 -30 -9 -75 -28 -75 -22 0 -39 38 -31 68 12 47 48 51
59 7z"/>
<path d="M6212 1485 c-25 -19 -28 -37 -8 -55 13 -10 12 -16 -4 -45 -22 -40
-12 -55 38 -55 40 0 72 15 72 34 0 17 -22 26 -61 26 -16 0 -29 5 -29 10 0 6
10 10 23 10 29 0 47 18 47 46 0 12 6 25 13 27 6 3 0 6 -15 6 -14 1 -32 3 -40
6 -7 3 -23 -2 -36 -10z m48 -36 c0 -24 -4 -30 -17 -27 -22 4 -29 34 -13 53 17
21 30 9 30 -26z m18 -91 c-3 -7 -17 -13 -33 -13 -16 0 -30 6 -32 13 -3 8 7 12
32 12 25 0 35 -4 33 -12z"/>
<path d="M6333 1490 c1 -3 15 -29 30 -58 27 -51 27 -55 12 -78 -8 -13 -11 -24
-6 -24 4 0 25 31 45 70 20 38 41 72 46 75 15 9 12 22 -5 22 -8 0 -14 -5 -13
-11 2 -14 -23 -66 -32 -66 -11 0 -33 57 -26 68 3 5 -8 9 -24 8 -17 -1 -29 -3
-27 -6z"/>
<path d="M6493 1375 c3 -43 21 -40 25 3 2 24 -1 32 -12 32 -12 0 -15 -9 -13
-35z"/>
<path d="M4754 1246 c-35 -15 -44 -32 -44 -81 0 -46 38 -75 96 -75 42 0 44 1
44 29 0 16 6 32 13 34 6 3 -6 5 -28 5 -22 0 -34 -2 -27 -5 6 -2 12 -16 12 -29
0 -19 -5 -24 -23 -24 -54 0 -78 89 -37 130 24 24 38 25 68 4 19 -13 22 -13 22
-1 0 8 -10 17 -22 21 -31 8 -38 7 -74 -8z"/>
<path d="M2755 1222 c-10 -6 -65 -229 -65 -259 0 -28 48 -12 83 26 55 61 59
141 6 141 -19 0 -20 4 -15 36 4 19 10 42 13 50 6 15 -5 18 -22 6z m25 -128
c11 -29 -13 -98 -43 -123 -21 -16 -21 -13 -2 68 22 90 29 99 45 55z"/>
<path d="M6109 1218 c-3 -41 4 -105 13 -115 6 -7 20 -13 32 -13 19 1 19 2 4
11 -13 7 -18 23 -18 54 0 33 4 45 18 48 16 4 16 5 0 6 -10 0 -18 6 -18 11 0
15 -30 12 -31 -2z"/>
<path d="M4897 1192 c-21 -23 -22 -51 -1 -80 31 -45 114 -15 114 41 0 51 -78
77 -113 39z m73 -17 c12 -31 -3 -75 -25 -75 -8 0 -21 11 -27 25 -13 30 3 75
27 75 9 0 20 -11 25 -25z"/>
<path d="M5064 1150 c17 -33 34 -60 37 -60 3 0 16 23 29 51 13 27 31 54 40 59
12 8 11 9 -8 10 -13 0 -21 -3 -19 -8 3 -4 -3 -22 -13 -41 l-17 -35 -17 32 c-9
18 -14 37 -11 42 4 6 -7 10 -23 10 l-29 0 31 -60z"/>
<path d="M5195 1186 c-19 -29 -11 -72 15 -86 25 -14 77 -13 86 2 5 8 0 9 -16
5 -28 -7 -60 8 -60 28 0 10 11 15 35 15 27 0 35 4 35 18 0 46 -69 59 -95 18z
m65 -6 c0 -13 -7 -20 -20 -20 -13 0 -20 7 -20 20 0 13 7 20 20 20 13 0 20 -7
20 -20z"/>
<path d="M5318 1203 c7 -3 12 -24 12 -53 0 -29 -5 -50 -12 -53 -7 -3 5 -5 27
-5 22 0 34 2 28 5 -7 2 -13 22 -13 43 0 42 19 67 38 48 9 -9 12 -8 12 5 0 20
-21 22 -38 5 -9 -9 -12 -9 -12 0 0 7 -12 12 -27 11 -16 0 -22 -3 -15 -6z"/>
<path d="M5435 1149 c0 -59 0 -59 30 -59 22 0 26 3 17 12 -17 17 -15 64 4 82
28 28 36 18 32 -39 l-3 -55 65 0 c50 0 61 3 52 12 -20 20 -15 76 8 88 26 14
34 -3 28 -60 -3 -39 -3 -40 27 -39 16 0 24 3 18 6 -7 2 -13 22 -13 43 0 29 5
42 20 50 26 14 34 -3 28 -60 -3 -39 -3 -40 27 -39 16 0 24 3 18 6 -8 3 -13 24
-13 54 0 55 -15 69 -54 51 -17 -7 -27 -7 -35 1 -8 8 -19 8 -41 0 -17 -6 -30
-7 -30 -2 0 5 -10 9 -21 9 -17 0 -19 -3 -10 -14 18 -22 10 -90 -11 -94 -15 -3
-18 4 -18 33 0 60 -12 72 -72 72 l-53 0 0 -58z"/>
<path d="M5826 1194 c-22 -21 -20 -67 2 -87 21 -19 77 -23 88 -6 4 7 0 9 -14
5 -26 -8 -62 9 -62 29 0 11 12 15 40 15 41 0 47 8 30 41 -13 23 -62 26 -84 3z
m62 -17 c3 -12 -3 -17 -22 -17 -25 0 -35 18 -19 34 12 12 38 2 41 -17z"/>
<path d="M5949 1196 c11 -13 9 -75 -2 -93 -6 -10 1 -13 24 -13 23 0 29 3 22
13 -13 17 -7 78 9 88 19 12 28 11 29 -3 0 -7 2 -26 4 -43 2 -16 -1 -35 -7 -42
-8 -10 -4 -13 19 -13 29 0 29 0 23 48 -3 26 -9 52 -13 58 -3 6 -31 11 -62 11
-40 0 -52 -3 -46 -11z"/>
<path d="M530 1180 c-12 -8 -10 -10 8 -10 13 0 20 4 17 10 -7 12 -6 12 -25 0z"/>
<path d="M113 1168 c-4 -7 -18 -59 -29 -116 -19 -91 -19 -103 -6 -100 12 2 21
29 34 93 10 50 20 100 23 113 6 24 -9 30 -22 10z"/>
<path d="M628 1155 c-6 -14 -18 -25 -27 -25 -11 0 -12 -3 -4 -8 10 -6 10 -23
1 -74 -12 -75 -7 -98 21 -98 22 0 61 36 61 57 0 22 -20 15 -32 -12 -19 -43
-31 -29 -24 28 12 88 16 97 45 98 23 2 24 2 3 6 -18 4 -21 9 -16 29 8 32 -13
32 -28 -1z"/>
<path d="M973 1168 c-4 -7 -18 -59 -29 -116 -19 -91 -19 -103 -6 -100 12 2 21
29 34 93 10 50 20 100 23 113 6 24 -9 30 -22 10z"/>
<path d="M1830 1155 c-5 -14 -17 -25 -27 -26 -11 0 -13 -3 -6 -6 10 -3 11 -26
7 -89 l-7 -84 25 0 c25 0 50 21 61 53 11 29 -22 20 -35 -10 l-12 -28 -4 35
c-5 62 11 113 38 121 24 7 24 7 3 8 -20 1 -21 4 -13 26 8 20 6 25 -5 25 -9 0
-20 -11 -25 -25z"/>
<path d="M2176 1172 c-4 -7 -46 -202 -46 -216 0 -3 6 -6 14 -6 12 0 30 68 52
193 6 34 -6 51 -20 29z"/>
<path d="M3038 1155 c-6 -14 -18 -25 -27 -25 -12 0 -13 -2 -3 -9 11 -6 11 -20
1 -73 -14 -74 -9 -98 21 -98 23 0 60 33 60 55 0 23 -19 18 -32 -10 -17 -38
-30 -19 -22 33 10 69 20 90 46 95 l23 4 -23 2 c-19 1 -21 5 -16 26 4 16 2 25
-5 25 -6 0 -17 -11 -23 -25z"/>
<path d="M262 1129 c-69 -14 -129 -109 -101 -160 8 -16 18 -20 40 -17 32 5 35
-2 18 -51 -13 -37 -32 -36 -39 2 -8 42 -35 15 -31 -30 1 -14 38 -17 66 -7 24
10 43 53 55 130 6 38 16 84 22 102 5 18 8 35 6 36 -1 1 -18 -1 -36 -5z m-10
-70 c-4 -51 -28 -102 -45 -96 -21 7 -19 79 3 115 28 45 46 37 42 -19z"/>
<path d="M2439 1125 c-35 -19 -51 -61 -47 -121 2 -38 7 -50 21 -52 20 -4 72
26 63 35 -3 4 -15 -2 -25 -12 -19 -17 -20 -16 -27 9 -9 39 2 105 21 127 23 24
38 14 33 -22 -5 -34 15 -40 32 -9 8 14 8 26 0 40 -12 23 -35 25 -71 5z"/>
<path d="M356 1122 c-2 -4 -11 -35 -20 -69 -32 -121 -13 -139 36 -36 44 90 57
92 46 6 -4 -36 -5 -69 -3 -72 12 -12 27 21 37 83 13 81 5 95 -40 72 -39 -20
-41 -20 -35 4 5 19 -11 28 -21 12z"/>
<path d="M525 1118 c-14 -36 -43 -163 -39 -167 11 -12 33 29 48 91 9 37 16 72
16 78 0 14 -20 13 -25 -2z"/>
<path d="M757 1119 c-41 -24 -65 -153 -31 -166 20 -7 63 12 71 32 9 26 -8 32
-24 8 -22 -33 -33 -28 -33 12 0 31 3 35 28 35 41 0 54 13 50 51 -3 37 -27 48
-61 28z m33 -34 c0 -28 -4 -35 -20 -35 -23 0 -25 9 -8 45 16 35 28 31 28 -10z"/>
<path d="M1035 1053 c-9 -43 -18 -84 -20 -90 -3 -7 2 -13 10 -13 9 0 28 29 46
70 18 39 36 70 42 70 6 0 8 -25 3 -71 -5 -53 -3 -70 6 -67 6 2 16 18 20 34 10
38 14 121 6 130 -4 3 -21 -1 -39 -10 -40 -20 -38 -20 -32 4 4 14 0 20 -10 20
-11 0 -20 -21 -32 -77z"/>
<path d="M1215 1118 c-9 -28 -33 -163 -30 -167 12 -11 32 12 48 55 10 27 26
60 37 74 l20 25 -1 -35 c0 -19 -4 -54 -8 -78 -7 -37 -6 -43 8 -40 18 4 28 41
30 116 1 51 0 53 -21 47 -13 -4 -27 -11 -32 -16 -17 -16 -28 -10 -21 11 5 14
2 20 -10 20 -8 0 -17 -6 -20 -12z"/>
<path d="M1393 1115 c-25 -17 -43 -71 -43 -127 0 -34 3 -38 25 -38 45 0 85 58
85 124 0 52 -27 69 -67 41z m33 -79 c-4 -19 -16 -45 -27 -58 l-20 -23 4 57 c3
31 11 67 18 79 l12 24 10 -22 c5 -12 7 -37 3 -57z"/>
<path d="M1596 1108 c-8 -13 -20 -35 -27 -50 -18 -40 -25 -34 -20 18 3 40 1
45 -15 42 -16 -3 -19 -15 -22 -86 -3 -76 -1 -83 15 -80 26 5 116 178 93 178
-5 0 -16 -10 -24 -22z"/>
<path d="M1682 1114 c-32 -22 -52 -66 -52 -114 0 -35 3 -40 23 -40 13 0 28 5
35 12 9 9 12 8 12 -5 0 -19 15 -23 25 -6 14 21 35 132 30 150 -8 23 -42 25
-73 3z m43 -13 c8 -26 -37 -121 -58 -121 -15 0 -1 87 17 115 20 30 32 32 41 6z"/>
<path d="M1951 1111 c-23 -23 -44 -91 -39 -129 2 -19 10 -28 24 -30 25 -4 83
42 71 55 -5 4 -19 -5 -32 -21 -22 -28 -23 -28 -30 -7 -11 36 3 61 35 61 33 0
53 27 48 63 -4 30 -50 35 -77 8z m44 -41 c-4 -11 -15 -20 -26 -20 -23 0 -23 3
-3 42 14 27 18 29 26 15 5 -10 6 -26 3 -37z"/>
<path d="M2255 1118 c-8 -21 -35 -142 -35 -155 0 -35 28 -5 57 57 39 87 58 93
48 13 -4 -31 -9 -62 -12 -70 -3 -7 1 -13 10 -13 20 0 26 18 33 101 7 75 -1 85
-42 54 -27 -20 -37 -19 -31 5 6 22 -20 29 -28 8z"/>
<path d="M2559 1086 c-10 -24 -22 -65 -26 -91 -6 -46 -6 -47 18 -40 13 4 34
19 47 33 l24 27 -7 -32 c-5 -26 -3 -33 8 -33 11 0 20 21 31 69 9 39 16 79 16
90 0 37 -28 12 -62 -55 -18 -35 -36 -64 -39 -64 -8 0 5 63 21 104 12 34 12 36
-1 36 -5 0 -19 -20 -30 -44z"/>
<path d="M2889 1115 c-35 -19 -66 -97 -54 -135 7 -22 44 -27 63 -8 9 9 12 8
12 -6 0 -42 25 -4 42 64 24 96 5 122 -63 85z m37 -57 c-3 -13 -17 -36 -30 -53
l-25 -30 -1 40 c0 24 9 54 21 75 21 34 22 34 32 13 5 -12 7 -32 3 -45z"/>
<path d="M3155 1106 c-25 -25 -39 -74 -33 -122 4 -40 39 -44 75 -8 21 21 24
29 13 32 -8 3 -20 -5 -28 -17 -21 -31 -32 -26 -32 13 0 33 2 35 37 38 30 2 38
8 43 28 15 61 -29 82 -75 36z m45 -21 c0 -28 -4 -35 -20 -35 -23 0 -25 9 -8
45 16 35 28 31 28 -10z"/>
<path d="M4371 1014 c0 -11 3 -14 6 -6 3 7 2 16 -1 19 -3 4 -6 -2 -5 -13z"/>
<path d="M4877 973 c-4 -3 -7 -15 -7 -25 0 -10 -5 -18 -11 -18 -8 0 -8 -4 1
-15 7 -8 11 -34 8 -60 -3 -40 -1 -45 17 -45 18 0 20 5 17 54 -3 46 -1 55 15
59 17 4 17 5 -1 6 -14 1 -17 7 -14 26 5 24 -10 34 -25 18z"/>
<path d="M4925 970 c3 -5 8 -10 11 -10 2 0 4 5 4 10 0 6 -5 10 -11 10 -5 0 -7
-4 -4 -10z"/>
<path d="M5348 949 c4 -28 3 -31 -17 -24 -35 11 -71 -19 -71 -59 0 -44 15 -55
75 -55 l50 1 -3 84 c-3 72 -6 84 -21 84 -14 0 -17 -6 -13 -31z m-3 -84 c0 -33
-4 -40 -19 -40 -26 0 -40 26 -32 59 5 21 12 27 29 24 18 -3 22 -9 22 -43z"/>
<path d="M5430 965 c0 -8 7 -15 15 -15 8 0 15 7 15 15 0 8 -7 15 -15 15 -8 0
-15 -7 -15 -15z"/>
<path d="M5028 961 c10 -6 13 -28 10 -80 -3 -66 -1 -71 17 -71 18 0 20 6 17
65 -2 42 1 71 8 80 11 13 7 15 -26 15 -25 0 -34 -3 -26 -9z"/>
<path d="M4724 905 c-19 -19 -23 -31 -18 -48 9 -31 24 -47 42 -47 12 0 13 3 4
12 -14 14 -16 67 -2 88 7 12 13 12 27 4 21 -13 29 -69 12 -90 -9 -11 -8 -14 3
-14 42 0 54 78 16 104 -32 22 -55 20 -84 -9z"/>
<path d="M5109 921 c9 -6 12 -24 10 -60 -4 -46 -2 -51 16 -51 18 0 20 5 17 35
-4 37 11 65 35 65 12 0 14 -11 11 -50 -3 -44 -1 -50 17 -50 18 0 20 6 17 55
-3 43 -8 55 -23 60 -11 4 -27 1 -36 -7 -13 -10 -17 -10 -20 0 -3 6 -17 12 -31
12 -19 0 -23 -3 -13 -9z"/>
<path d="M5419 921 c9 -6 12 -24 10 -60 -4 -46 -2 -51 16 -51 18 0 20 5 17 60
-4 58 -5 60 -30 60 -19 0 -23 -3 -13 -9z"/>
<path d="M5510 920 c-8 -5 -11 -12 -7 -17 5 -4 12 -1 17 6 10 17 40 7 40 -12
0 -8 -15 -18 -32 -23 -26 -8 -33 -15 -33 -34 0 -20 6 -25 30 -28 25 -2 27 -1
13 8 -16 10 -26 40 -14 40 2 0 11 3 19 6 11 4 16 -2 19 -23 2 -15 10 -29 18
-31 12 -2 14 7 12 45 -2 27 -9 54 -14 61 -12 14 -47 16 -68 2z"/>
<path d="M3395 670 c-14 -28 -15 -37 -4 -59 13 -25 13 -24 19 29 4 30 6 57 4
58 -1 2 -10 -11 -19 -28z"/>
<path d="M3868 333 c6 -2 18 -2 25 0 6 3 1 5 -13 5 -14 0 -19 -2 -12 -5z"/>
<path d="M4108 333 c6 -2 18 -2 25 0 6 3 1 5 -13 5 -14 0 -19 -2 -12 -5z"/>
<path d="M3903 234 c9 -11 17 -24 17 -27 0 -4 -100 -8 -222 -8 -123 -1 -213
-4 -200 -6 26 -5 33 -53 6 -53 -13 0 -12 -5 6 -31 12 -16 25 -28 28 -25 2 3
-1 12 -7 20 -17 20 -6 36 24 36 18 0 25 -6 28 -27 2 -16 5 -4 6 25 l1 52 80 0
c63 0 80 -3 80 -15 0 -7 -8 -19 -17 -24 -17 -10 -17 -12 2 -26 11 -9 28 -14
38 -11 10 2 17 -1 17 -10 0 -8 5 -14 10 -14 6 0 10 23 10 50 l0 50 35 0 c28 0
35 -4 35 -19 0 -11 -9 -21 -21 -24 -13 -4 -20 -12 -17 -24 5 -26 38 -29 45 -4
8 31 41 27 46 -6 2 -16 5 -4 6 25 l1 52 51 0 50 0 -3 -32 c-2 -25 -8 -34 -25
-36 -17 -3 -23 2 -23 16 0 11 6 23 13 25 7 4 8 6 1 6 -18 1 -35 -25 -28 -43 4
-9 18 -16 34 -16 16 0 31 -6 33 -12 3 -7 6 10 6 39 1 31 6 53 14 56 6 3 -17 6
-52 6 -56 1 -69 5 -95 29 -17 15 -23 18 -13 6z m-323 -64 c0 -15 -7 -20 -25
-20 -18 0 -25 5 -25 20 0 15 7 20 25 20 18 0 25 -5 25 -20z m210 -9 c0 -30
-18 -45 -39 -31 -9 5 -10 10 -2 14 6 4 11 16 11 27 0 10 7 19 15 19 10 0 15
-10 15 -29z m140 9 c0 -13 -7 -20 -20 -20 -13 0 -20 7 -20 20 0 13 7 20 20 20
13 0 20 -7 20 -20z m-58 -45 c0 -5 -5 -11 -11 -13 -6 -2 -11 4 -11 13 0 9 5
15 11 13 6 -2 11 -8 11 -13z"/>
<path d="M4493 234 c9 -11 17 -24 17 -27 0 -4 -78 -8 -172 -9 -95 -1 -149 -3
-120 -5 37 -3 52 -8 52 -19 0 -9 -11 -14 -32 -14 -30 0 -31 -1 -13 -14 17 -12
18 -16 5 -32 -13 -15 -13 -17 0 -12 8 2 16 14 18 26 5 33 20 26 25 -10 3 -23
4 -16 5 20 l2 52 35 0 c39 0 48 -21 18 -39 -17 -10 -17 -12 2 -26 11 -9 30
-13 42 -10 15 3 23 0 26 -12 3 -10 5 6 6 35 l1 52 55 0 c42 0 55 -3 55 -15 0
-9 -9 -15 -24 -15 -37 0 -56 -10 -56 -29 0 -18 29 -63 30 -45 0 5 -5 15 -11
21 -19 19 -2 43 30 43 26 0 30 -4 34 -32 3 -23 4 -17 5 19 1 28 6 53 10 55 4
2 -8 16 -27 33 -20 16 -28 20 -18 9z m-93 -69 c0 -25 -26 -46 -47 -38 -10 3
-9 10 2 27 8 12 12 26 8 29 -3 4 3 7 15 7 17 0 22 -6 22 -25z"/>
<path d="M3630 145 c-10 -12 -10 -21 -1 -42 6 -14 14 -23 17 -20 3 3 0 14 -7
26 -16 24 -10 31 33 41 l33 8 -31 1 c-17 1 -37 -6 -44 -14z"/>
<path d="M4180 120 c6 -11 16 -20 22 -20 6 0 3 9 -7 20 -10 11 -20 20 -22 20
-2 0 1 -9 7 -20z"/>
</g>
</svg>
